<?xml version="1.0" standalone="no"?>
<!DOCTYPE svg PUBLIC "-//W3C//DTD SVG 1.1//EN" "http://www.w3.org/Graphics/SVG/1.1/DTD/svg11.dtd" >
<svg>
<metadata>
Created by FontForge 20090914 at Tue Jul  7 23:45:01 2015
 By www-data
Copyright (c) 1989, 1990 Adobe Systems Incorporated.  All Rights Reserved.Trade Gothic is a trademark of Linotype AG and/or its subsidiaries.
</metadata>
<defs>
<font id="TradeGothicNo.18-Condensed" horiz-adv-x="444" >
  <font-face 
    font-family="TradeGothicNo.18-Condensed"
    font-weight="400"
    font-stretch="expanded"
    units-per-em="1000"
    panose-1="2 11 5 0 0 0 0 0 0 0"
    ascent="800"
    descent="-200"
    x-height="520"
    cap-height="722"
    bbox="-30 -216.002 1000 950"
    underline-thickness="50"
    underline-position="-50"
    unicode-range="U+0020-U+2122"
  />
<missing-glyph horiz-adv-x="502" 
d="M-1 0h500v500h-500v-500zM9 10v480h480v-480h-480z" />
    <glyph glyph-name=".notdef" horiz-adv-x="502" 
d="M-1 0h500v500h-500v-500zM9 10v480h480v-480h-480z" />
    <glyph glyph-name="space" unicode=" " horiz-adv-x="222" 
 />
    <glyph glyph-name="exclam" unicode="!" horiz-adv-x="333" 
d="M140 214h52l16 508h-84zM124 94v-94h84v94h-84z" />
    <glyph glyph-name="quotedbl" unicode="&#x22;" horiz-adv-x="333" 
d="M72 466h62v256h-62v-256zM199 466h62v256h-62v-256z" />
    <glyph glyph-name="numbersign" unicode="#" 
d="M402 283h-78l18 156h84v56h-79l26 227h-59l-25 -227h-99l25 227h-58l-26 -227h-88v-56h83l-18 -156h-90v-56h84l-26 -227h59l25 227h99l-25 -227h59l25 227h84v56zM283 439l-17 -156h-100l18 156h99z" />
    <glyph glyph-name="dollar" unicode="$" 
d="M242 320c29.333 -22.667 52 -45.167 68 -67.5s24 -47.833 24 -76.5c0 -32.667 -8.16699 -59.5 -24.5 -80.5s-38.833 -32.833 -67.5 -35.5v260zM192 442c-24 18 -42.667 36.332 -56 54.999s-20 40 -20 64c0 25.333 7 47.333 21 66s32.333 30.334 55 35.001v-220z
M38 197.999c0 -53.333 13.332 -97.834 39.999 -133.501s64.667 -57.167 114 -64.5v-116h50v116c50 4.66699 89.833 23 119.5 55s44.5 73.333 44.5 124c0 28 -4.5 53.167 -13.5 75.5s-21 42.166 -36 59.499s-30.833 32.333 -47.5 45s-38 28 -64 46l-3 2v255
c25.333 -8 44.666 -24.333 57.999 -49s20.666 -52.334 21.999 -83.001h72c-1.33301 52 -15.166 95.333 -41.499 130s-63.166 55.334 -110.499 62.001v96h-50v-96c-44 -5.33301 -79.667 -23.5 -107 -54.5s-41 -69.167 -41 -114.5c0 -23.333 4 -44.5 12 -63.5
s18.833 -36.167 32.5 -51.5s28.334 -29.166 44.001 -41.499s35.5 -26.5 59.5 -42.5v-294c-28 8 -48.333 23.833 -61 47.5s-19.667 53.834 -21 90.501h-72z" />
    <glyph glyph-name="percent" unicode="%" horiz-adv-x="778" 
d="M384 156c0 -21.333 4.00098 -41.332 12.001 -59.999s19 -35.334 33 -50.001c30 -30.667 67 -46 111 -46s81 15.333 111 46c14.667 14.667 25.834 31.334 33.501 50.001s11.5 38.667 11.5 60s-3.83301 41.5 -11.5 60.5s-18.834 35.5 -33.501 49.5
c-30 30.667 -67 46 -111 46s-81 -15.333 -111 -46c-14.667 -14.667 -25.834 -31.334 -33.501 -50.001s-11.5 -38.667 -11.5 -60zM444.001 156.001c0 26 9.33301 48.5 28 67.5s41.334 28.5 68.001 28.5c27.333 0 50.166 -9.5 68.499 -28.5s27.5 -41.5 27.5 -67.5
s-9.16699 -48.5 -27.5 -67.5s-41.166 -28.5 -68.499 -28.5c-26.667 0 -49.334 9.5 -68.001 28.5s-28 41.5 -28 67.5zM46.001 566.001c0 -21.333 4.00098 -41.332 12.001 -59.999s19 -35.334 33 -50.001c30 -30.667 67 -46 111 -46s81 15.333 111 46
c14.667 14.667 25.834 31.334 33.501 50.001s11.5 38.667 11.5 60s-3.83301 41.5 -11.5 60.5s-18.834 35.5 -33.501 49.5c-30 30.667 -67 46 -111 46s-81 -15.333 -111 -46c-14.667 -14.667 -25.834 -31.334 -33.501 -50.001s-11.5 -38.667 -11.5 -60zM106.002 566.002
c0 26 9.33301 48.5 28 67.5s41.334 28.5 68.001 28.5c27.333 0 50.166 -9.5 68.499 -28.5s27.5 -41.5 27.5 -67.5s-9.16699 -48.5 -27.5 -67.5s-41.166 -28.5 -68.499 -28.5c-26.667 0 -49.334 9.5 -68.001 28.5s-28 41.5 -28 67.5zM554.002 732.002l-414 -742h58l414 742
h-58z" />
    <glyph glyph-name="ampersand" unicode="&#x26;" horiz-adv-x="556" 
d="M122 180c0 26 7.5 53.001 22.5 81.001s32.833 52.667 53.5 74c19.333 -36.667 41.666 -74.167 66.999 -112.5s51.666 -73.833 78.999 -106.5c-11.333 -16.667 -26.166 -30.834 -44.499 -42.501s-37.166 -17.5 -56.499 -17.5c-38.667 0 -68.5 11.167 -89.5 33.5
s-31.5 52.5 -31.5 90.5zM190 585.001c0 33.333 5.5 57.168 16.5 71.501s26.833 21.5 47.5 21.5c13.333 0 25.333 -6.5 36 -19.5s16 -28.5 16 -46.5c0 -29.333 -6.5 -56.333 -19.5 -81s-33.5 -52.667 -61.5 -84l-5 12c-10 25.333 -17.5 47.166 -22.5 65.499
s-7.5 38.5 -7.5 60.5zM412 350.003c-2.66699 -32.667 -6.33301 -62.001 -11 -88.001s-11.667 -50.667 -21 -74c-48.667 58 -91.667 124.333 -129 199l4 4c22 20.667 39.167 37.667 51.5 51s23.5 27.333 33.5 42c25.333 38 38 78.667 38 122
c0 34.667 -12.5 64.334 -37.5 89.001s-57.167 37 -96.5 37c-36.667 0 -66.834 -13.167 -90.501 -39.5s-35.5 -64.166 -35.5 -113.499c0 -14 1.66699 -29.5 5 -46.5s7.66602 -34.333 12.999 -52s11 -34 17 -49s11.333 -27.5 16 -37.5c-4 -4 -10 -10.333 -18 -19
c-31.333 -33.333 -56 -65 -74 -95s-27 -65.333 -27 -106c0 -56.667 16.667 -101.5 50 -134.5s78.333 -49.5 135 -49.5c29.333 0 57.333 7.16699 84 21.5s49.667 33.166 69 56.499c12.667 -14 27.5 -27.333 44.5 -40s32.167 -22 45.5 -28l42 54
c-35.333 25.333 -64.666 51.333 -87.999 78c16.667 36.667 28.334 70.5 35.001 101.5s11.667 68.5 15 112.5z" />
    <glyph glyph-name="quotesingle" unicode="'" horiz-adv-x="222" 
d="M80 466h62v256h-62v-256z" />
    <glyph glyph-name="parenleft" unicode="(" horiz-adv-x="278" 
d="M238 -80c-36 65.333 -62.667 129.833 -80 193.5s-26 129.5 -26 197.5s8.66699 133.833 26 197.5s44 128.167 80 193.5l-48 30c-43.333 -68 -74.833 -135 -94.5 -201s-29.5 -139.333 -29.5 -220s9.83301 -154 29.5 -220s51.167 -133 94.5 -201z" />
    <glyph glyph-name="parenright" unicode=")" horiz-adv-x="278" 
d="M40 702c36 -65.333 62.667 -129.833 80 -193.5s26 -129.5 26 -197.5s-8.66699 -133.833 -26 -197.5s-44 -128.167 -80 -193.5l48 -30c43.333 68 74.833 135 94.5 201s29.5 139.333 29.5 220s-9.83301 154 -29.5 220s-51.167 133 -94.5 201z" />
    <glyph glyph-name="asterisk" unicode="*" 
d="M255 722h-66l20 -158l-144 70l-20 -66l154 -32l-114 -112l58 -44l79 138l79 -138l58 44l-114 112l154 32l-20 66l-144 -70z" />
    <glyph glyph-name="plus" unicode="+" horiz-adv-x="600" 
d="M267 293h-227v-66h227v-227h66v227h227v66h-227v227h-66v-227z" />
    <glyph glyph-name="comma" unicode="," horiz-adv-x="222" 
d="M69 94v-94h40l-46 -150h30l60 144v100h-84z" />
    <glyph glyph-name="hyphen" unicode="-" horiz-adv-x="333" 
d="M289 227v66h-246v-66h246z" />
    <glyph glyph-name="period" unicode="." horiz-adv-x="222" 
d="M69 94v-94h84v94h-84z" />
    <glyph glyph-name="slash" unicode="/" horiz-adv-x="278" 
d="M56 -10l232 742h-66l-232 -742h66z" />
    <glyph glyph-name="zero" unicode="0" 
d="M324 361c0 -114 -8.33301 -194.333 -25 -241s-42.334 -70 -77.001 -70s-60.334 23.333 -77.001 70s-25 127 -25 241s8.33301 194.333 25 241s42.334 70 77.001 70s60.334 -23.333 77.001 -70s25 -127 25 -241zM396 361c0 129.333 -14.167 223.5 -42.5 282.5
s-72.166 88.5 -131.499 88.5s-103.166 -29.5 -131.499 -88.5s-42.5 -153.167 -42.5 -282.5s14.167 -223.5 42.5 -282.5s72.166 -88.5 131.499 -88.5s103.166 29.5 131.499 88.5s42.5 153.167 42.5 282.5z" />
    <glyph glyph-name="one" unicode="1" 
d="M350 0v60.001h-84v672h-48c-31.333 -26.667 -69.333 -45.334 -114 -56.001v-44l90 8v-580h-88v-60h244z" />
    <glyph glyph-name="two" unicode="2" 
d="M388 0l-0.000976562 60h-274c21.333 50 44.166 93 68.499 129s54.166 76 89.499 120c39.333 49.333 67.833 90.333 85.5 123s26.5 71.334 26.5 116.001c0 58.667 -14.667 104 -44 136s-68.333 48 -117 48c-22.667 0 -43.667 -3.5 -63 -10.5s-36.666 -18.667 -51.999 -35
s-27.666 -38.333 -36.999 -66s-15 -61.167 -17 -100.5h66c2.66699 52 13.334 90.333 32.001 115s43 37 73 37c26 0 47 -9.83301 63 -29.5s24 -47.834 24 -84.501c0 -38.667 -9.5 -75.5 -28.5 -110.5s-48.833 -79.5 -89.5 -133.5c-38 -50.667 -68.5 -94.5 -91.5 -131.5
s-41.167 -77.833 -54.5 -122.5v-60h340z" />
    <glyph glyph-name="three" unicode="3" 
d="M126 570c1.33301 28.667 8.83203 52.8311 22.499 72.498s34.834 29.5 63.501 29.5c26 0 46.5 -9.66699 61.5 -29s22.5 -49.666 22.5 -90.999c0 -54 -11.333 -90.5 -34 -109.5s-62 -28.5 -118 -28.5v-60c58.667 0 100.667 -11 126 -33s38 -62 38 -120
c0 -46.667 -9.5 -83.5 -28.5 -110.5s-41.5 -40.5 -67.5 -40.5c-63.333 0 -98 40.667 -104 122h-66c0.666992 -52.667 16 -96.167 46 -130.5s68.667 -51.5 116 -51.5c49.333 0 91 18.167 125 54.5s51 89.5 51 159.5c0 43.333 -8.16699 81 -24.5 113s-43.5 54.333 -81.5 67v2
c27.333 5.33301 49.833 22.833 67.5 52.5s26.5 68.834 26.5 117.501c0 56.667 -15.833 100.167 -47.5 130.5s-69.5 45.5 -113.5 45.5s-78.5 -14.333 -103.5 -43s-39.5 -65.667 -43.5 -111z" />
    <glyph glyph-name="four" unicode="4" 
d="M253 656h2v-432h-163zM222 722l-198 -524v-34h231v-164h72v164h75v60h-75v498h-105z" />
    <glyph glyph-name="five" unicode="5" 
d="M56 162c3.33301 -50 18.834 -91.165 46.501 -123.498s66.167 -48.5 115.5 -48.5c50.667 0 92.667 22 126 66s50 105.667 50 185c0 75.333 -14.5 133.333 -43.5 174s-65.833 61 -110.5 61c-36.667 0 -68.667 -11.333 -96 -34l14 220h190l6 60h-254l-24 -366l56 -10
c6 20 17.667 36.667 35 50s36 20 56 20c29.333 0 53.166 -13.833 71.499 -41.5s27.5 -72.834 27.5 -135.501c0 -60.667 -10 -107.334 -30 -140.001s-46 -49 -78 -49c-15.333 0 -28.5 3.5 -39.5 10.5s-20.167 16.333 -27.5 28s-12.833 24.167 -16.5 37.5s-6.5 27.333 -8.5 42
z" />
    <glyph glyph-name="six" unicode="6" 
d="M376 592c-7.33301 45.333 -21.8369 80 -43.5039 104s-54.5 36 -98.5 36c-58.667 0 -103.667 -33 -135 -99s-47 -169.667 -47 -311c0 -64.667 3.83301 -118.334 11.5 -161.001s19 -76.5 34 -101.5s33.833 -42.833 56.5 -53.5s50.334 -16 83.001 -16
c47.333 0 85 20.167 113 60.5s42 95.5 42 165.5c0 39.333 -4.16699 73.333 -12.5 102s-19.666 51.834 -33.999 69.501s-30.666 30.5 -48.999 38.5s-38.166 12 -59.499 12c-20.667 0 -40.5 -5 -59.5 -15s-36.167 -23.333 -51.5 -40c1.33301 98 11.166 170.667 29.499 218
s43.833 71 76.5 71c18 0 34.333 -6 49 -18s24.334 -34 29.001 -66zM123.996 316c14 18 29.8311 32.832 47.498 44.499s37.167 17.5 58.5 17.5c12.667 0 24.167 -2.5 34.5 -7.5s19.833 -13.5 28.5 -25.5s15.334 -28.667 20.001 -50s7 -47.333 7 -78
c0 -59.333 -8.16699 -102 -24.5 -128s-39.5 -39 -69.5 -39c-33.333 0 -58.666 15.333 -75.999 46s-26 81.334 -26 152.001v68z" />
    <glyph glyph-name="seven" unicode="7" 
d="M60 662h248l-210 -662h76l210 684v38h-324v-60z" />
    <glyph glyph-name="eight" unicode="8" 
d="M328 179c0 -33.333 -9 -63.166 -27 -89.499s-44.333 -39.5 -79 -39.5c-34 0 -60.167 13.167 -78.5 39.5s-27.5 56.166 -27.5 89.499c0 35.333 9 65.666 27 90.999s44.333 50.666 79 75.999c34.667 -25.333 61 -50.666 79 -75.999s27 -55.666 27 -90.999zM312 578
c0 -35.333 -8.00195 -66.5 -24.002 -93.5s-38 -49.167 -66 -66.5c-28 17.333 -50 39.5 -66 66.5s-24 58.167 -24 93.5c0 25.333 7.83301 47.333 23.5 66s37.834 28 66.501 28s50.834 -9.33301 66.501 -28s23.5 -40.667 23.5 -66zM399.998 182
c0 42.667 -10.1689 80.5 -30.502 113.5s-48.833 62.5 -85.5 88.5c34 27.333 59.167 55 75.5 83s24.5 62.333 24.5 103c0 46.667 -15.667 85.334 -47 116.001s-69.666 46 -114.999 46s-83.666 -15.333 -114.999 -46s-47 -69.334 -47 -116.001
c0 -40.667 8.16699 -75 24.5 -103s41.5 -55.667 75.5 -83c-36.667 -26 -65.167 -55.5 -85.5 -88.5s-30.5 -70.833 -30.5 -113.5c0 -54 16.167 -99.5 48.5 -136.5s75.5 -55.5 129.5 -55.5s97.167 18.5 129.5 55.5s48.5 82.5 48.5 136.5z" />
    <glyph glyph-name="nine" unicode="9" 
d="M68 130c7.33301 -45.333 21.8359 -80 43.5029 -104s54.5 -36 98.5 -36c59.333 0 104.5 33.167 135.5 99.5s46.5 169.833 46.5 310.5c0 64.667 -3.66699 118.334 -11 161.001s-18.666 76.5 -33.999 101.5s-34.333 42.833 -57 53.5s-50.334 16 -83.001 16
c-47.333 0 -85 -20.167 -113 -60.5s-42 -95.5 -42 -165.5c0 -39.333 4.16699 -73.333 12.5 -102s19.666 -51.834 33.999 -69.501s30.666 -30.5 48.999 -38.5s38.166 -12 59.499 -12c20.667 0 40.5 5 59.5 15s36.167 23.333 51.5 40
c-0.666992 -98 -10.167 -170.667 -28.5 -218s-44.166 -71 -77.499 -71c-18 0 -34.333 6 -49 18s-24.334 34 -29.001 66zM320.003 406c-13.333 -18 -28.998 -32.832 -46.998 -44.499s-37.667 -17.5 -59 -17.5c-12.667 0 -24.167 2.5 -34.5 7.5s-19.833 13.5 -28.5 25.5
s-15.334 28.667 -20.001 50s-7 47.333 -7 78c0 59.333 8.16699 102 24.5 128s39.5 39 69.5 39c33.333 0 58.666 -15.333 75.999 -46s26 -81.334 26 -152.001v-68z" />
    <glyph glyph-name="colon" unicode=":" horiz-adv-x="222" 
d="M69 94v-94h84v94h-84zM69 366v-94h84v94h-84z" />
    <glyph glyph-name="semicolon" unicode=";" horiz-adv-x="222" 
d="M69 94v-94h40l-46 -150h30l60 144v100h-84zM69 366v-94h84v94h-84z" />
    <glyph glyph-name="less" unicode="&#x3c;" horiz-adv-x="600" 
d="M560 72l-422 188l422 188v69l-520 -232v-50l520 -232v69z" />
    <glyph glyph-name="equal" unicode="=" horiz-adv-x="600" 
d="M40 334h520v66h-520v-66zM40 120h520v66h-520v-66z" />
    <glyph glyph-name="greater" unicode="&#x3e;" horiz-adv-x="600" 
d="M40 3l520 232v50l-520 232v-69l422 -188l-422 -188v-69z" />
    <glyph glyph-name="question" unicode="?" horiz-adv-x="389" 
d="M187 214l0.000976562 40.002c0 31.333 5.33301 58.166 16 80.499s27 48.5 49 78.5c24.667 32.667 43 62 55 88s18 58.333 18 97c0 42.667 -12.167 75.667 -36.5 99s-54.5 35 -90.5 35c-38.667 0 -69.667 -12.5 -93 -37.5s-37 -57.167 -41 -96.5l60 -12
c2 22 9.33301 41.833 22 59.5s29 26.5 49 26.5c16 0 29.667 -6.33301 41 -19s17 -31 17 -55c0 -30.667 -4.83301 -57.334 -14.5 -80.001s-24.5 -48.667 -44.5 -78c-20.667 -32 -36.334 -60.5 -47.001 -85.5s-16 -55.167 -16 -90.5v-50h56zM111.001 94.002v-94h84v94h-84z
" />
    <glyph glyph-name="at" unicode="@" horiz-adv-x="800" 
d="M349 204c-24.667 0 -44.834 9.00098 -60.501 27.001s-23.5 41.333 -23.5 70c0 22 3.83301 45.167 11.5 69.5s18.667 47.166 33 68.499s31.333 38.5 51 51.5s40.5 19.5 62.5 19.5c20.667 0 39.334 -9.66699 56.001 -29s25 -41 25 -65c0 -20 -4 -42.333 -12 -67
s-19.167 -48.167 -33.5 -70.5s-31 -40.333 -50 -54s-38.833 -20.5 -59.5 -20.5zM535 496.001c-11.333 26.667 -26.667 46.3262 -46 58.9932s-41.333 19 -66 19c-34 0 -65.5 -7.83301 -94.5 -23.5s-54 -37.167 -75 -64.5s-37 -57.666 -48 -90.999s-16.5 -67 -16.5 -101
c0 -43.333 13.333 -80.166 40 -110.499s61 -45.5 103 -45.5c22 0 43.667 6.33301 65 19s40.333 28 57 46l2 1c2 -21.333 8.83301 -37.666 20.5 -48.999s26.5 -17 44.5 -17c24 0 49.5 7 76.5 21s52.5 34 76.5 60s43.333 56.833 58 92.5s22 73.834 22 114.501
c0 44 -8.83301 84.667 -26.5 122s-42 69.833 -73 97.5s-67.167 49 -108.5 64s-84.666 22.5 -129.999 22.5c-50 0 -97.5 -9.5 -142.5 -28.5s-84.667 -45.5 -119 -79.5s-61 -73.5 -80 -118.5s-28.5 -92.5 -28.5 -142.5c0 -51.333 9.5 -99.666 28.5 -144.999
s45.5 -85.166 79.5 -119.499s73.833 -61 119.5 -80s94.5 -28.5 146.5 -28.5c64 0 123.833 15.667 179.5 47s99.5 74 131.5 128h-63c-27.333 -36.667 -63.333 -65.667 -108 -87s-90.667 -32 -138 -32c-42.667 0 -82.834 8 -120.501 24s-70.667 38.333 -99 67
s-50.5 62.334 -66.5 101.001s-24 80.334 -24 125.001c0 42 7.5 82 22.5 120s36.5 71.5 64.5 100.5s60.667 51.667 98 68s77.333 24.5 120 24.5c36.667 0 71.667 -5.83301 105 -17.5s63 -28.667 89 -51s46.333 -49.333 61 -81s22 -66.834 22 -105.501
c0 -25.333 -4.33301 -51.5 -13 -78.5s-20.167 -51.5 -34.5 -73.5s-30.333 -39.5 -48 -52.5s-35.167 -19.5 -52.5 -19.5c-14.667 0 -22 8.33301 -22 25c0 14.667 3.33301 32.667 10 54l86 282h-63z" />
    <glyph glyph-name="A" unicode="A" 
d="M221 668h2l80 -388h-162zM168 722l-159 -722h78l43 214h184l43 -214h78l-159 722h-108z" />
    <glyph glyph-name="B" unicode="B" horiz-adv-x="500" 
d="M66 0l146 -0.00292969c154.667 0 232 66.667 232 200c0 46.667 -10.5 85.834 -31.5 117.501s-52.5 53.167 -94.5 64.5v2c37.333 10.667 65 30.334 83 59.001s27 62.334 27 101.001c0 54 -15 97.167 -45 129.5s-71.667 48.5 -125 48.5h-192v-722zM144 345.997h78
c50 0 86.5 -12.167 109.5 -36.5s34.5 -60.833 34.5 -109.5c0 -46 -12 -79.833 -36 -101.5s-60 -32.5 -108 -32.5h-78v280zM144 655.997h77.999c46.667 0 79.667 -8.5 99 -25.5s29 -45.833 29 -86.5c0 -48 -12.667 -82 -38 -102s-66.666 -30 -123.999 -30h-44v244z" />
    <glyph glyph-name="C" unicode="C" horiz-adv-x="500" 
d="M440 504c-6 76 -24.834 132.997 -56.501 170.997s-74.5 57 -128.5 57c-32.667 0 -61.834 -6.66699 -87.501 -20s-47.667 -34.666 -66 -63.999s-32.166 -67.666 -41.499 -114.999s-14 -104.666 -14 -171.999c0 -66.667 4.83301 -123.834 14.5 -171.501
s23.5 -86.167 41.5 -115.5s39.833 -50.666 65.5 -63.999s54.834 -20 87.501 -20c61.333 0 109 21.667 143 65s51.333 105 52 185h-78c-0.666992 -64.667 -10.834 -111.5 -30.501 -140.5s-48.5 -43.5 -86.5 -43.5c-46 0 -79.333 23.167 -100 69.5s-31 124.833 -31 235.5
s10.333 189.167 31 235.5s54 69.5 100 69.5c31.333 0 55.833 -13 73.5 -39s28.834 -67 33.501 -123h78z" />
    <glyph glyph-name="D" unicode="D" horiz-adv-x="500" 
d="M144 656h42c30.667 0 56.834 -4.16699 78.501 -12.5s40 -23 55 -44s26.5 -50.667 34.5 -89s12 -88.166 12 -149.499c0 -60.667 -4 -110.334 -12 -149.001s-19.5 -68.5 -34.5 -89.5s-33.333 -35.667 -55 -44s-47.834 -12.5 -78.501 -12.5h-42v590zM66 0l134 -0.00195312
c39.333 0 74 6 104 18s55.333 31.833 76 59.5s36.5 64.834 47.5 111.501s16.5 104 16.5 172s-5.5 125.333 -16.5 172s-26.833 83.834 -47.5 111.501s-46 47.5 -76 59.5s-64.667 18 -104 18h-134v-722z" />
    <glyph glyph-name="E" unicode="E" 
d="M66 722v-722h342v66h-264v278h186v66h-186v246h252v66h-330z" />
    <glyph glyph-name="F" unicode="F" horiz-adv-x="389" 
d="M66 0h78v344h174v66h-174v246h232v66h-310v-722z" />
    <glyph glyph-name="G" unicode="G" horiz-adv-x="500" 
d="M444 500c-2.66699 31.333 -8 60.6641 -16 87.9971s-19.5 51.833 -34.5 73.5s-34.167 38.834 -57.5 51.501s-51 19 -83 19c-32.667 0 -61.667 -6.66699 -87 -20s-47 -34.666 -65 -63.999s-31.667 -67.666 -41 -114.999s-14 -104.666 -14 -171.999
c0 -66.667 4.83301 -123.834 14.5 -171.501s23.334 -86.167 41.001 -115.5s39.167 -50.666 64.5 -63.999s54.333 -20 87 -20c28.667 0 53.834 5.5 75.501 16.5s40.167 26.833 55.5 47.5l10 -54h50v338h-176v-66h98v-102c0 -36.667 -9.66699 -64.834 -29 -84.501
s-47.333 -29.5 -84 -29.5c-44.667 0 -77.334 23.167 -98.001 69.5s-31 124.833 -31 235.5s10.333 189.167 31 235.5s53.334 69.5 98.001 69.5c37.333 0 64.666 -14.833 81.999 -44.5s27.666 -70.167 30.999 -121.5h78z" />
    <glyph glyph-name="H" unicode="H" horiz-adv-x="500" 
d="M66 722v-722h78v344h212v-344h78v722h-78v-312h-212v312h-78z" />
    <glyph glyph-name="I" unicode="I" horiz-adv-x="222" 
d="M72 722v-722h78v722h-78z" />
    <glyph glyph-name="J" unicode="J" horiz-adv-x="278" 
d="M134 722v-560c0 -38.667 -6.83301 -66 -20.5 -82s-36.5 -24 -68.5 -24c-15.333 0 -30.333 2.66699 -45 8l-6 -68c20 -4 33.333 -6 40 -6c65.333 0 111.333 13.5 138 40.5s40 76.833 40 149.5v542h-78z" />
    <glyph glyph-name="K" unicode="K" 
d="M56 722v-722h78v222l94 168h2l134 -390h84l-166 470l140 252h-84l-202 -368h-2v368h-78z" />
    <glyph glyph-name="L" unicode="L" horiz-adv-x="389" 
d="M66 722v-722h312v66h-234v656h-78z" />
    <glyph glyph-name="M" unicode="M" horiz-adv-x="611" 
d="M56 722v-722h72v662h2l150 -662h51l150 662h2v-662h72v722h-124l-123 -546h-2l-126 546h-124z" />
    <glyph glyph-name="N" unicode="N" horiz-adv-x="500" 
d="M56 722v-722h78v628h2l224 -628h84v722h-78v-532h-2l-186 532h-122z" />
    <glyph glyph-name="O" unicode="O" horiz-adv-x="500" 
d="M376 361c0 -60 -3.16699 -109.833 -9.5 -149.5s-15.166 -70.834 -26.499 -93.501s-24.5 -38.667 -39.5 -48s-31.833 -14 -50.5 -14s-35.5 4.66699 -50.5 14s-28.167 25.333 -39.5 48s-20.166 53.834 -26.499 93.501s-9.5 89.5 -9.5 149.5s3.16699 109.833 9.5 149.5
s15.166 70.834 26.499 93.501s24.5 38.667 39.5 48s31.833 14 50.5 14s35.5 -4.66699 50.5 -14s28.167 -25.333 39.5 -48s20.166 -53.834 26.499 -93.501s9.5 -89.5 9.5 -149.5zM454 361c0 66 -4.83203 122.667 -14.499 170s-23.334 85.833 -41.001 115.5
s-39 51.334 -64 65.001s-53.167 20.5 -84.5 20.5s-59.5 -6.83301 -84.5 -20.5s-46.333 -35.334 -64 -65.001s-31.334 -68.167 -41.001 -115.5s-14.5 -104 -14.5 -170s4.83301 -122.667 14.5 -170s23.5 -85.833 41.5 -115.5s39.333 -51.334 64 -65.001s52.667 -20.5 84 -20.5
s59.5 6.83301 84.5 20.5s46.333 35.334 64 65.001s31.334 68.167 41.001 115.5s14.5 104 14.5 170z" />
    <glyph glyph-name="P" unicode="P" 
d="M56 0h78v326h92c58 0 104.5 18 139.5 54s52.5 84 52.5 144s-17.5 108 -52.5 144s-81.5 54 -139.5 54h-170v-722zM134 656h82c40 0 70.667 -11 92 -33s32 -55 32 -99s-10.667 -77 -32 -99s-52 -33 -92 -33h-82v264z" />
    <glyph glyph-name="Q" unicode="Q" horiz-adv-x="500" 
d="M266 140c20.667 -13.333 38.668 -30.6689 54.001 -52.002c-18 -21.333 -41.333 -32 -70 -32c-18.667 0 -35.5 4.66699 -50.5 14s-28.167 25.333 -39.5 48s-20.166 53.834 -26.499 93.501s-9.5 89.5 -9.5 149.5s3.16699 109.833 9.5 149.5s15.166 70.834 26.499 93.501
s24.5 38.667 39.5 48s31.833 14 50.5 14s35.5 -4.66699 50.5 -14s28.167 -25.333 39.5 -48s20.166 -53.834 26.499 -93.501s9.5 -89.5 9.5 -149.5c0 -97.333 -8.66699 -169.333 -26 -216c-24.667 30.667 -52.667 50.334 -84 59.001v-64zM474.001 11.9971
c-16 1.33301 -29.8301 7.66895 -41.4971 19.002s-23.167 26 -34.5 44c37.333 61.333 56 156.666 56 285.999c0 66 -4.83301 122.667 -14.5 170s-23.334 85.833 -41.001 115.5s-39 51.334 -64 65.001s-53.167 20.5 -84.5 20.5s-59.5 -6.83301 -84.5 -20.5
s-46.333 -35.334 -64 -65.001s-31.334 -68.167 -41.001 -115.5s-14.5 -104 -14.5 -170s4.83301 -122.667 14.5 -170s23.5 -85.833 41.5 -115.5s39.333 -51.334 64 -65.001s52.667 -20.5 84 -20.5c42 0 77.333 12 106 36c15.333 -25.333 32.166 -45 50.499 -59
s40.833 -21.667 67.5 -23v68z" />
    <glyph glyph-name="R" unicode="R" horiz-adv-x="500" 
d="M144 656h68c54 0 92.167 -10.167 114.5 -30.5s33.5 -51.833 33.5 -94.5c0 -42 -11.167 -73.333 -33.5 -94s-60.5 -31 -114.5 -31h-68v250zM66 0l77.999 0.000976562v338l102 4l116 -342h82l-122 358c38.667 13.333 67.667 35.666 87 66.999s29 68 29 110
c0 58.667 -18.167 104.5 -54.5 137.5s-84.166 49.5 -143.499 49.5h-174v-722z" />
    <glyph glyph-name="S" unicode="S" 
d="M396 536c-2.66699 62.667 -19.8301 111.002 -51.4971 145.002s-73.834 51 -126.501 51c-52 0 -94 -15.333 -126 -46s-48 -71.334 -48 -122.001c0 -26 4.33301 -49.667 13 -71s20.334 -40.333 35.001 -57s30.167 -31.5 46.5 -44.5s37.166 -28.5 62.499 -46.5
c45.333 -31.333 78.833 -58.833 100.5 -82.5s32.5 -52.834 32.5 -87.501c0 -38 -9.5 -67.333 -28.5 -88s-45.167 -31 -78.5 -31c-38 0 -67 12.167 -87 36.5s-30.667 58.166 -32 101.499h-72c1.33301 -61.333 18.166 -110.666 50.499 -147.999s76.5 -56 132.5 -56
c59.333 0 105 16.167 137 48.5s48 77.5 48 135.5c0 30 -4.66699 56.833 -14 80.5s-21.5 44.5 -36.5 62.5s-30.833 33.667 -47.5 47s-38.667 29 -66 47c-42.667 29.333 -74.334 55 -95.001 77s-31 49.667 -31 83c0 28 9 50.833 27 68.5s42 26.5 72 26.5
c35.333 0 61.833 -11.667 79.5 -35s28.167 -55 31.5 -95h72z" />
    <glyph glyph-name="T" unicode="T" horiz-adv-x="389" 
d="M7 722v-66h148v-656h78v656h148v66h-374z" />
    <glyph glyph-name="U" unicode="U" horiz-adv-x="500" 
d="M66 722v-532c0 -61.333 15.167 -110 45.5 -146s76.5 -54 138.5 -54s108.167 18 138.5 54s45.5 84.667 45.5 146v532h-78v-530c0 -41.333 -7.83301 -74.333 -23.5 -99s-43.167 -37 -82.5 -37s-66.833 12.333 -82.5 37s-23.5 57.667 -23.5 99v530h-78z" />
    <glyph glyph-name="V" unicode="V" 
d="M16 722l170 -722h72l170 722h-78l-127 -572h-2l-127 572h-78z" />
    <glyph glyph-name="W" unicode="W" horiz-adv-x="611" 
d="M6 722l120 -722h66l114 567h2l114 -567h66l116 722h-72l-80 -564h-2l-112 564h-64l-108 -564h-2l-86 564h-72z" />
    <glyph glyph-name="X" unicode="X" 
d="M20 722l150 -338l-156 -384h84l116 302l132 -302h84l-172 384l142 338h-84l-102 -256l-110 256h-84z" />
    <glyph glyph-name="Y" unicode="Y" 
d="M16 722l168 -416v-306h78v306l166 416h-84l-120 -316l-124 316h-84z" />
    <glyph glyph-name="Z" unicode="Z" 
d="M68 722v-66h236l-260 -600v-56h356v66h-268l268 602v54h-332z" />
    <glyph glyph-name="bracketleft" unicode="[" horiz-adv-x="278" 
d="M60 -100h184v40h-118v742h118v40h-184v-822z" />
    <glyph glyph-name="backslash" unicode="\" horiz-adv-x="278" 
d="M288 -10l-232 742h-66l232 -742h66z" />
    <glyph glyph-name="bracketright" unicode="]" horiz-adv-x="278" 
d="M218 722h-184v-40h118v-742h-118v-40h184v822z" />
    <glyph glyph-name="asciicircum" unicode="^" horiz-adv-x="600" 
d="M62 295h72l166 342l166 -342h72l-210 427h-56z" />
    <glyph glyph-name="underscore" unicode="_" horiz-adv-x="500" 
d="M500 -125v50h-500v-50h500z" />
    <glyph glyph-name="grave" unicode="`" horiz-adv-x="222" 
d="M118 578h50l-98 138h-78z" />
    <glyph glyph-name="a" unicode="a" 
d="M128 368c4.66699 27.333 14.499 51.1689 29.499 71.502s35.167 30.5 60.5 30.5c23.333 0 41.666 -8.33301 54.999 -25s20 -39.334 20 -68.001v-37c-28.667 -6 -57 -14.833 -85 -26.5s-54.167 -26.334 -78.5 -44.001s-44 -38.834 -59 -63.501s-22.5 -52 -22.5 -82
c0 -40.667 12.333 -73.167 37 -97.5s57.334 -36.5 98.001 -36.5c16 0 34.833 5.33301 56.5 16s39.834 23.334 54.501 38.001l9 -44h75c-8.66699 13.333 -13 44 -13 92v290c0 46.667 -13 83 -39 109s-62.667 39 -110 39c-43.333 0 -78 -14.167 -104 -42.5
s-42.667 -64.833 -50 -109.5zM292.999 104.003c-15.333 -16 -31.1689 -28.998 -47.502 -38.998s-33.5 -15 -51.5 -15c-25.333 0 -44 7 -56 21s-18 33.667 -18 59c0 19.333 5.5 37.166 16.5 53.499s25.333 30.666 43 42.999s36.334 23 56.001 32s38.834 16.167 57.501 21.5
v-176z" />
    <glyph glyph-name="b" unicode="b" 
d="M138 50c28 -40 64 -60.0039 108 -60.0039c21.333 0 41 4.83301 59 14.5s33.833 25.167 47.5 46.5s24.334 49.333 32.001 84s11.5 76.334 11.5 125.001s-3.83301 90.334 -11.5 125.001s-18.334 62.667 -32.001 84s-29.5 36.833 -47.5 46.5s-37.667 14.5 -59 14.5
c-18 0 -35 -4.5 -51 -13.5s-31 -20.5 -45 -34.5v240h-72v-582c0 -33.333 -1 -61.166 -3 -83.499s-5 -41.166 -9 -56.499h56zM150 423.996c14.667 14.667 27.832 26.001 39.499 34.001s24.5 12 38.5 12c32 0 56 -15.833 72 -47.5s24 -85.834 24 -162.501
c0 -76 -8.33301 -130 -25 -162s-41 -48 -73 -48c-11.333 0 -24.166 4.66699 -38.499 14s-26.833 21.333 -37.5 36v324z" />
    <glyph glyph-name="c" unicode="c" horiz-adv-x="389" 
d="M346 366c-7.33301 53.333 -23.168 93.999 -47.501 121.999s-59.166 42 -104.499 42c-54.667 0 -94.834 -21.667 -120.501 -65s-38.5 -111.666 -38.5 -204.999s12.833 -161.666 38.5 -204.999s65.834 -65 120.501 -65c45.333 0 80.833 15.667 106.5 47
s41.5 73.666 47.5 126.999h-70c-6 -43.333 -15.5 -73.166 -28.5 -89.499s-31.5 -24.5 -55.5 -24.5c-16 0 -29.333 3 -40 9s-19.5 16.667 -26.5 32s-12.167 36.666 -15.5 63.999s-5 62.333 -5 105c0 43.333 1.66699 78.5 5 105.5s8.5 48.167 15.5 63.5s15.833 26 26.5 32
s24 9 40 9c23.333 0 42 -8 56 -24s22.667 -42.667 26 -80h70z" />
    <glyph glyph-name="d" unicode="d" 
d="M310 0l67.999 0.00390625c-4 15.333 -7 34.166 -9 56.499s-3 50.166 -3 83.499v582h-72v-240c-14 14 -29 25.5 -45 34.5s-33 13.5 -51 13.5c-21.333 0 -41 -4.83301 -59 -14.5s-33.833 -25.167 -47.5 -46.5s-24.334 -49.333 -32.001 -84s-11.5 -76.334 -11.5 -125.001
s3.83301 -90.334 11.5 -125.001s18.334 -62.667 32.001 -84s29.5 -36.833 47.5 -46.5s37.667 -14.5 59 -14.5c44.667 0 80.334 20 107.001 60h2zM293.999 100.004c-10.667 -14.667 -23.1689 -26.668 -37.502 -36.001s-27.166 -14 -38.499 -14c-32 0 -56.333 16 -73 48
s-25 86 -25 162c0 76.667 8 130.834 24 162.501s40 47.5 72 47.5c14 0 26.833 -4 38.5 -12s24.834 -19.333 39.501 -34v-324z" />
    <glyph glyph-name="e" unicode="e" horiz-adv-x="389" 
d="M107 308c0.666992 58.667 8.33301 100.333 23 125s36 37 64 37c31.333 0 53.5 -12.5 66.5 -37.5s19.833 -66.5 20.5 -124.5h-174zM352.999 247.999v33.999c0 78 -13.167 138.833 -39.5 182.5s-66.166 65.5 -119.499 65.5c-54.667 0 -94.834 -21.667 -120.501 -65
s-38.5 -111.666 -38.5 -204.999s12.833 -161.666 38.5 -204.999s65.834 -65 120.501 -65c45.333 0 82.666 14.667 111.999 44s47 64.666 53 105.999l-68 8c-5.33301 -28 -14.833 -51.333 -28.5 -70s-33.167 -28 -58.5 -28c-34.667 0 -59.5 12.5 -74.5 37.5
s-22.5 68.833 -22.5 131.5v29h246z" />
    <glyph glyph-name="f" unicode="f" horiz-adv-x="278" 
d="M18 460h80v-460h72v460h84v60h-84v103c0 17.333 4.33301 30.833 13 40.5s21.334 14.5 38.001 14.5c14.667 0 27.667 -2.66699 39 -8v56c-22.667 4 -41.334 6 -56.001 6c-38 0 -65.167 -8.66699 -81.5 -26s-24.5 -44 -24.5 -80v-106h-80v-60z" />
    <glyph glyph-name="g" unicode="g" 
d="M336 -42c0 -22.667 -8.50098 -40.668 -25.501 -54.001s-44.5 -20 -82.5 -20c-37.333 0 -65.666 6.5 -84.999 19.5s-29 30.833 -29 53.5c0 14 6.16699 27 18.5 39s29.5 22.667 51.5 32c8 -2 19 -4.33301 33 -7c38.667 -7.33301 68.167 -15.166 88.5 -23.499
s30.5 -21.5 30.5 -39.5zM139.999 344.999c0 46.667 6.83301 80.167 20.5 100.5s32.167 30.5 55.5 30.5s41.833 -10.167 55.5 -30.5s20.5 -53.833 20.5 -100.5s-6.83301 -80.167 -20.5 -100.5s-32.167 -30.5 -55.5 -30.5s-41.833 10.167 -55.5 30.5s-20.5 53.833 -20.5 100.5
zM407.999 529.999c-20.667 0 -38.333 -4.33301 -53 -13s-26.334 -20.334 -35.001 -35.001c-8 15.333 -21.167 27.166 -39.5 35.499s-36.833 12.5 -55.5 12.5c-46 0 -82.667 -17.333 -110 -52s-41 -82.667 -41 -144c0 -28.667 5.5 -57.167 16.5 -85.5
s26.167 -49.5 45.5 -63.5c-18.667 -3.33301 -34.667 -11 -48 -23s-20 -27.333 -20 -46c0 -16.667 5.16699 -31.167 15.5 -43.5s23.833 -21.166 40.5 -26.499c-24 -10 -42.667 -24.167 -56 -42.5s-20 -38.833 -20 -61.5c0 -34.667 15.167 -62 45.5 -82s74.5 -30 132.5 -30
c54 0 96.833 11.667 128.5 35s47.5 52.333 47.5 87c0 20.667 -3.66699 38.167 -11 52.5s-17.5 26 -30.5 35s-27.667 16.333 -44 22s-35.166 10.834 -56.499 15.501c-8 2 -20.333 4.33301 -37 7c-31.333 5.33301 -54 11 -68 17s-21 15.667 -21 29c0 8.66699 4 16 12 22
s16 10 24 12c5.33301 0 13.333 -0.666992 24 -2s18.667 -2 24 -2c42 0 75.833 15.5 101.5 46.5s38.5 77.5 38.5 139.5c0 20 -1.33301 37.167 -4 51.5s-6.66699 30.5 -12 48.5c14.667 13.333 29.667 20 45 20c8.66699 0 15.667 -0.666992 21 -2v66z" />
    <glyph glyph-name="h" unicode="h" 
d="M72 0h71.999v406c34 42.667 67 64 99 64c38 0 57 -28.667 57 -86v-384h72v394c0 46.667 -9.66699 81 -29 103s-47.666 33 -84.999 33c-16.667 0 -36 -6.66699 -58 -20s-40.667 -29 -56 -47v259h-72v-722z" />
    <glyph glyph-name="i" unicode="i" horiz-adv-x="222" 
d="M75 0h72v520h-72v-520zM75 638h72v84h-72v-84z" />
    <glyph glyph-name="j" unicode="j" horiz-adv-x="222" 
d="M4 -166h3c16 -2.66699 28.333 -4 37 -4c36.667 0 63.5 9.16699 80.5 27.5s25.5 48.5 25.5 90.5v572h-72v-566c0 -22.667 -4.16699 -39 -12.5 -49s-20.833 -15 -37.5 -15c-4.66699 0 -11.667 1 -21 3l-3 1v-60zM78 638h72v84h-72v-84z" />
    <glyph glyph-name="k" unicode="k" horiz-adv-x="389" 
d="M66 0h72v154l68 128h2l94 -282h74l-120 354l96 166h-74l-138 -254h-2v456h-72v-722z" />
    <glyph glyph-name="l" unicode="l" horiz-adv-x="222" 
d="M75 0h72v722h-72v-722z" />
    <glyph glyph-name="m" unicode="m" horiz-adv-x="667" 
d="M152 0l0.00195312 416.002l1 1c13.333 16.667 26.333 29.667 39 39s28.667 14 48 14c20 0 34.5 -5.16699 43.5 -15.5s13.5 -28.5 13.5 -54.5v-400h72v416l6 6c14 15.333 27.167 27.166 39.5 35.499s27.5 12.5 45.5 12.5c19.333 0 33.166 -5 41.499 -15
s12.5 -28.333 12.5 -55v-400h72v410c0 37.333 -9.16699 66.666 -27.5 87.999s-44.166 32 -77.499 32c-23.333 0 -45 -6.16699 -65 -18.5s-38.667 -28.166 -56 -47.499c-6.66699 19.333 -18.667 35.166 -36 47.499s-36.333 18.5 -57 18.5
c-22.667 0 -44.334 -6.33301 -65.001 -19s-39.334 -28.667 -56.001 -48v57h-66v-520h72z" />
    <glyph glyph-name="n" unicode="n" 
d="M72 0h71.999v406c34 42.667 67 64 99 64c38 0 57 -28.667 57 -86v-384h72v394c0 46.667 -9.66699 81 -29 103s-47.666 33 -84.999 33c-16 0 -35.167 -6.5 -57.5 -19.5s-42.5 -28.833 -60.5 -47.5v57h-68v-520z" />
    <glyph glyph-name="o" unicode="o" horiz-adv-x="389" 
d="M107 260c0 43.333 1.66699 78.5 5 105.5s8.5 48.167 15.5 63.5s15.833 26 26.5 32s24 9 40 9s29.333 -3 40 -9s19.5 -16.667 26.5 -32s12.167 -36.5 15.5 -63.5s5 -62.167 5 -105.5c0 -42.667 -1.66699 -77.667 -5 -105s-8.5 -48.666 -15.5 -63.999
s-15.833 -26 -26.5 -32s-24 -9 -40 -9s-29.333 3 -40 9s-19.5 16.667 -26.5 32s-12.167 36.666 -15.5 63.999s-5 62.333 -5 105zM35 260c0 -93.333 12.833 -161.666 38.5 -204.999s65.834 -65 120.501 -65s94.834 21.667 120.501 65s38.5 111.666 38.5 204.999
s-12.833 161.666 -38.5 204.999s-65.834 65 -120.501 65s-94.834 -21.667 -120.501 -65s-38.5 -111.666 -38.5 -204.999z" />
    <glyph glyph-name="p" unicode="p" 
d="M138 520l-60 -0.00195312v-690h72v208c14 -14 29 -25.5 45 -34.5s33 -13.5 51 -13.5c21.333 0 41 4.83301 59 14.5s33.833 25.167 47.5 46.5s24.334 49.333 32.001 84s11.5 76.334 11.5 125.001s-3.83301 90.334 -11.5 125.001s-18.334 62.667 -32.001 84
s-29.5 36.833 -47.5 46.5s-37.667 14.5 -59 14.5c-44.667 0 -80 -20 -106 -60h-2v50zM150 419.998c10.667 14.667 23.1689 26.668 37.502 36.001s27.166 14 38.499 14c32 0 56.333 -16 73 -48s25 -86 25 -162c0 -76.667 -8 -130.834 -24 -162.501s-40 -47.5 -72 -47.5
c-14 0 -26.833 4 -38.5 12s-24.834 19.333 -39.501 34v324z" />
    <glyph glyph-name="q" unicode="q" 
d="M306 470l-2 0.00195312c-26 40 -61.333 60 -106 60c-21.333 0 -41 -4.83301 -59 -14.5s-33.833 -25.167 -47.5 -46.5s-24.334 -49.333 -32.001 -84s-11.5 -76.334 -11.5 -125.001s3.83301 -90.334 11.5 -125.001s18.334 -62.667 32.001 -84s29.5 -36.833 47.5 -46.5
s37.667 -14.5 59 -14.5c18 0 35 4.5 51 13.5s31 20.5 45 34.5v-208h72v690h-60v-50zM294 96.002c-14.667 -14.667 -27.832 -26.001 -39.499 -34.001s-24.5 -12 -38.5 -12c-32 0 -56 15.833 -72 47.5s-24 85.834 -24 162.501c0 76 8.33301 130 25 162s41 48 73 48
c11.333 0 24.166 -4.66699 38.499 -14s26.833 -21.333 37.5 -36v-324z" />
    <glyph glyph-name="r" unicode="r" horiz-adv-x="278" 
d="M66 0h71.999v370c18.667 35.333 38.334 59.5 59.001 72.5s45.667 19.5 75 19.5v68c-30.667 0 -55.167 -4.66699 -73.5 -14s-37.833 -29 -58.5 -59h-2v63h-72v-520z" />
    <glyph glyph-name="s" unicode="s" horiz-adv-x="389" 
d="M334 406c-8.66699 40 -25.167 70.6631 -49.5 91.9961s-56.166 32 -95.499 32c-38.667 0 -70.834 -12.333 -96.501 -37s-38.5 -54.334 -38.5 -89.001c0 -19.333 3.33301 -36.666 10 -51.999s15.5 -29 26.5 -41s22.833 -22.5 35.5 -31.5s28.667 -19.5 48 -31.5
c34 -21.333 59.167 -40.166 75.5 -56.499s24.5 -37.166 24.5 -62.499c0 -21.333 -7.5 -39.833 -22.5 -55.5s-32.5 -23.5 -52.5 -23.5c-24 0 -43.667 8.5 -59 25.5s-27.333 39.167 -36 66.5l-66 -14c13.333 -45.333 33 -79.666 59 -102.999s61.667 -35 107 -35
c41.333 0 75.333 13.667 102 41s40 61.666 40 102.999c0 21.333 -3.66699 40.5 -11 57.5s-16.833 31.833 -28.5 44.5s-24 23.834 -37 33.501s-29.833 20.834 -50.5 33.501c-32 19.333 -55.5 36.333 -70.5 51s-22.5 32.667 -22.5 54c0 18 5.5 32.833 16.5 44.5
s24.833 17.5 41.5 17.5c26.667 0 46.5 -7 59.5 -21s23.167 -34.333 30.5 -61z" />
    <glyph glyph-name="t" unicode="t" horiz-adv-x="278" 
d="M8 460h70v-358c0 -39.333 8 -67.833 24 -85.5s41.333 -26.5 76 -26.5c14 0 26.167 0.833008 36.5 2.5s20.833 4.16699 31.5 7.5v54c-9.33301 -3.33301 -17.5 -5.83301 -24.5 -7.5s-13.5 -2.5 -19.5 -2.5c-17.333 0 -30.333 4.66699 -39 14s-13 22 -13 38v364h96v60h-96
v174h-72v-174h-70v-60z" />
    <glyph glyph-name="u" unicode="u" 
d="M372 520h-71.999v-406c-34 -42.667 -67 -64 -99 -64c-38 0 -57 28.667 -57 86v384h-72v-394c0 -46.667 9.66699 -81 29 -103s47.666 -33 84.999 -33c16.667 0 36 6.5 58 19.5s42 28.833 60 47.5v-57h68v520z" />
    <glyph glyph-name="v" unicode="v" horiz-adv-x="389" 
d="M18 520l128 -520h96l128 520h-72l-102 -448h-2l-104 448h-72z" />
    <glyph glyph-name="w" unicode="w" horiz-adv-x="556" 
d="M18 520l110 -520h60l90 404h2l90 -404h60l108 520h-68l-68 -382h-2l-86 382h-68l-84 -382h-2l-74 382h-68z" />
    <glyph glyph-name="x" unicode="x" horiz-adv-x="333" 
d="M121 270l-120 -270h74l88 204l94 -204h74l-132 270l112 250h-74l-76 -182l-86 182h-74z" />
    <glyph glyph-name="y" unicode="y" horiz-adv-x="333" 
d="M2 520l138 -516c-14.667 -76 -50.667 -114 -108 -114h-22v-60h37c42 0 76.333 15.5 103 46.5s47 75.833 61 134.5l119 509h-74l-80 -398h-2l-98 398h-74z" />
    <glyph glyph-name="z" unicode="z" horiz-adv-x="333" 
d="M39 460h184l-200 -406v-54h286v60h-206l206 412v48h-270v-60z" />
    <glyph glyph-name="braceleft" unicode="{" horiz-adv-x="278" 
d="M16 291c20.667 0 35.5 -6.1709 44.5 -18.5039s13.5 -34.166 13.5 -65.499v-221c0 -31.333 8.5 -55.166 25.5 -71.499s39.833 -24.5 68.5 -24.5h64v40h-52c-26.667 0 -40 17.333 -40 52v235c0 28.667 -7.5 50.667 -22.5 66s-32.833 24.333 -53.5 27v2
c20.667 2.66699 38.5 11.667 53.5 27s22.5 37.333 22.5 66v235c0 34.667 13.333 52 40 52h52v40h-64c-28.667 0 -51.5 -8.16699 -68.5 -24.5s-25.5 -40.166 -25.5 -71.499v-221c0 -31.333 -4.5 -53.166 -13.5 -65.499s-23.833 -18.5 -44.5 -18.5v-40z" />
    <glyph glyph-name="bar" unicode="|" horiz-adv-x="222" 
d="M78 -10h66v742h-66v-742z" />
    <glyph glyph-name="braceright" unicode="}" horiz-adv-x="278" 
d="M262 331c-20.667 0 -35.5 6.1709 -44.5 18.5039s-13.5 34.166 -13.5 65.499v221c0 31.333 -8.5 55.166 -25.5 71.499s-39.833 24.5 -68.5 24.5h-64v-40h52c26.667 0 40 -17.333 40 -52v-235c0 -28.667 7.5 -50.667 22.5 -66s32.833 -24.333 53.5 -27v-2
c-20.667 -2.66699 -38.5 -11.667 -53.5 -27s-22.5 -37.333 -22.5 -66v-235c0 -34.667 -13.333 -52 -40 -52h-52v-40h64c28.667 0 51.5 8.16699 68.5 24.5s25.5 40.166 25.5 71.499v221c0 31.333 4.5 53.166 13.5 65.499s23.833 18.5 44.5 18.5v40z" />
    <glyph glyph-name="asciitilde" unicode="~" horiz-adv-x="600" 
d="M502 331c-15.333 -23.333 -29.666 -41.165 -42.999 -53.498s-29.333 -18.5 -48 -18.5c-10.667 0 -22.667 2.33301 -36 7s-30.666 11.667 -51.999 21l-17 7c-22.667 10 -43.5 18 -62.5 24s-36.5 9 -52.5 9c-31.333 0 -57.166 -8 -77.499 -24s-38.166 -37.333 -53.499 -64
l38 -50c15.333 23.333 29.666 41.166 42.999 53.499s29.333 18.5 48 18.5c10.667 0 22.667 -2.33301 36 -7s30.666 -11.334 51.999 -20.001l17 -8c22.667 -10 43.5 -18 62.5 -24s36.5 -9 52.5 -9c31.333 0 57.166 8.16699 77.499 24.5s38.166 37.5 53.499 63.5z" />
    <glyph glyph-name="exclamdown" unicode="&#xa1;" horiz-adv-x="333" 
d="M193 306h-52l-16 -508h84zM209 426v94h-84v-94h84z" />
    <glyph glyph-name="cent" unicode="&#xa2;" 
d="M156 97c-8 14.667 -13.833 35.833 -17.5 63.5s-5.5 64.167 -5.5 109.5c0 43.333 1.66699 78.5 5 105.5s8.5 48.167 15.5 63.5s15.833 26 26.5 32s24 9 40 9c8.66699 0 16 -1 22 -3zM282 445.999c10.667 -16 17.334 -39.334 20.001 -70.001h70
c-9.33301 70 -33.666 118 -72.999 144l29 130h-48l-25 -113c-10.667 2 -22.334 3 -35.001 3c-54.667 0 -94.834 -21.667 -120.501 -65s-38.5 -111.666 -38.5 -204.999c0 -66.667 6.33301 -120.167 19 -160.5s32.334 -69.5 59.001 -87.5l-31 -136h48l27 119
c9.33301 -3.33301 21.666 -5 36.999 -5c45.333 0 80.833 15.667 106.5 47s41.5 73.666 47.5 126.999h-70c-6 -43.333 -15.5 -73.166 -28.5 -89.499s-31.5 -24.5 -55.5 -24.5c-8.66699 0 -16.667 1 -24 3z" />
    <glyph glyph-name="sterling" unicode="&#xa3;" 
d="M32 -10c20.667 3.33301 40.0029 11.8389 58.0029 25.5059s34.333 30.5 49 50.5c14.667 -21.333 33.667 -39.333 57 -54s46.333 -22 69 -22c50 0 85.667 14.5 107 43.5s32 81.167 32 156.5h-66c0 -48.667 -6.66699 -82.834 -20 -102.501s-31.333 -29.5 -54 -29.5
c-18 0 -34.833 5.16699 -50.5 15.5s-31.5 24.5 -47.5 42.5c16 37.333 24 80.666 24 129.999c0 11.333 -1.33301 28.666 -4 51.999c-2 13.333 -3.33301 24 -4 32h94v60h-106c-2 11.333 -5.33301 27.333 -10 48c-12 54 -18 95.333 -18 124c0 40 6.66699 68.333 20 85
s33.333 25 60 25c30 0 52.167 -12.833 66.5 -38.5s24.166 -62.167 29.499 -109.5h66c-1.33301 28.667 -5 55.167 -11 79.5s-15.333 46.166 -28 65.499s-29.834 34.666 -51.501 45.999s-47.834 17 -78.501 17c-42 0 -76.667 -15.167 -104 -45.5s-41 -75.5 -41 -135.5
c0 -19.333 1.66699 -38.333 5 -57s8.33301 -42.334 15 -71.001l8 -33h-66v-60h78c0.666992 -5.33301 1.66699 -15 3 -29c3.33301 -26.667 5 -49 5 -67c0 -38.667 -6.66699 -74.167 -20 -106.5s-35.333 -55.5 -66 -69.5v-68z" />
    <glyph glyph-name="currency" unicode="&#xa4;" 
d="M438 185l-46 49c13.333 13.333 24 31.833 32 55.5s12 47.5 12 71.5s-4 47.833 -12 71.5s-18.667 42.167 -32 55.5l46 49l-42 42l-46 -47c-16 15.333 -35.333 26.666 -58 33.999s-46 11 -70 11s-47.333 -3.66699 -70 -11s-42 -18.666 -58 -33.999l-46 47l-42 -42l46 -49
c-13.333 -13.333 -24 -31.833 -32 -55.5s-12 -47.5 -12 -71.5s4 -47.833 12 -71.5s18.667 -42.167 32 -55.5l-46 -49l42 -42l46 47c16 -15.333 35.333 -26.666 58 -33.999s46 -11 70 -11s47.333 3.66699 70 11s42 18.666 58 33.999l46 -47zM78 361
c0 44 13.333 80.333 40 109s61.334 43 104.001 43s77.334 -14.333 104.001 -43s40 -65 40 -109s-13.333 -80.333 -40 -109s-61.334 -43 -104.001 -43s-77.334 14.333 -104.001 43s-40 65 -40 109z" />
    <glyph glyph-name="yen" unicode="&#xa5;" 
d="M419 298h-160v8l34 84h126v60h-102l108 272h-72l-129 -332l-133 332h-72l110 -272h-102v-60h126l34 -84v-8h-160v-60h160v-238h72v238h160v60z" />
    <glyph glyph-name="brokenbar" unicode="&#xa6;" horiz-adv-x="222" 
d="M78 -10h66v284h-66v-284zM78 448h66v284h-66v-284z" />
    <glyph glyph-name="section" unicode="&#xa7;" horiz-adv-x="500" 
d="M392 652c-20.667 24 -43.8291 43.333 -69.4961 58s-52.5 22 -80.5 22c-37.333 0 -67 -10.333 -89 -31s-33 -45.667 -33 -75c0 -24.667 5 -47 15 -67s25 -39.667 45 -59c-30.667 0 -57.667 -9.16699 -81 -27.5s-35 -42.166 -35 -71.499c0 -34.667 12.167 -68 36.5 -100
s59.833 -70 106.5 -114c37.333 -35.333 65.166 -64.333 83.499 -87s27.5 -44.667 27.5 -66c0 -16.667 -6 -31.5 -18 -44.5s-26.333 -19.5 -43 -19.5c-22.667 0 -44 6.33301 -64 19s-35.667 29 -47 49l-48 -38c21.333 -28 45 -49 71 -63s56 -21 90 -21
c35.333 0 65 11.5 89 34.5s36 51.833 36 86.5c0 22.667 -5.33301 44.167 -16 64.5s-25.334 41.166 -44.001 62.499c32.667 0 59.5 9.83301 80.5 29.5s31.5 46.167 31.5 79.5c0 32.667 -12.333 64.5 -37 95.5s-60.334 68.167 -107.001 111.5c-36 34 -62.667 61.167 -80 81.5
s-26 39.5 -26 57.5c0 19.333 5.16699 34 15.5 44s26.5 15 48.5 15c16.667 0 33.667 -6.5 51 -19.5s31.666 -27.833 42.999 -44.5zM130.005 396c0 18.667 5.00098 33.666 15.001 44.999s24.333 17 43 17c12.667 0 29.167 -7.16699 49.5 -21.5s40.833 -32.5 61.5 -54.5
s37.667 -43.667 51 -65s20 -38.666 20 -51.999c0 -15.333 -5.16699 -29 -15.5 -41s-22.833 -18 -37.5 -18c-14 0 -31.5 7.33301 -52.5 22s-41.833 33.167 -62.5 55.5s-37.834 44 -51.501 65s-20.5 36.833 -20.5 47.5z" />
    <glyph glyph-name="dieresis" unicode="&#xa8;" horiz-adv-x="222" 
d="M12 588h66v102h-66v-102zM144 588h66v102h-66v-102z" />
    <glyph glyph-name="copyright" unicode="&#xa9;" horiz-adv-x="800" 
d="M401 -10c50 0 97.668 9.33301 143.001 28s85.333 45 120 79s61.667 73.667 81 119s29 94 29 146c0 51.333 -9.66699 99.666 -29 144.999s-46.333 84.833 -81 118.5s-74.667 59.834 -120 78.501s-93 28 -143 28c-50.667 0 -98.667 -9.33301 -144 -28
s-85.333 -44.834 -120 -78.501s-61.834 -73.167 -81.501 -118.5s-29.5 -93.666 -29.5 -144.999c0 -52 9.66699 -100.667 29 -146s46.5 -85 81.5 -119s75.167 -60.333 120.5 -79s93.333 -28 144 -28zM401.001 50c-42 0 -81.6689 7.83301 -119.002 23.5
s-69.666 37.667 -96.999 66s-48.666 61.5 -63.999 99.5s-23 79 -23 123c0 43.333 7.66699 83.833 23 121.5s36.833 70.667 64.5 99s60 50.333 97 66s76.5 23.5 118.5 23.5s81.333 -7.83301 118 -23.5s68.667 -37.667 96 -66s48.666 -61.333 63.999 -99s23 -78.167 23 -121.5
c0 -44 -7.66699 -85 -23 -123s-36.666 -71.167 -63.999 -99.5s-59.333 -50.333 -96 -66s-76 -23.5 -118 -23.5zM533.999 290c-4.66699 -29.333 -17.834 -53.168 -39.501 -71.501s-48.834 -27.5 -81.501 -27.5c-44.667 0 -80.667 16.833 -108 50.5s-41 74.5 -41 122.5
c0 48.667 12.833 88.667 38.5 120s61.834 47 108.501 47c32 0 59.167 -8.66699 81.5 -26s36.166 -39.666 41.499 -66.999h63c-7.33301 48 -28.166 85.5 -62.499 112.5s-75.833 40.5 -124.5 40.5c-66.667 0 -119.667 -21.333 -159 -64s-59 -97.667 -59 -165
c0 -32 5.16699 -62.167 15.5 -90.5s25.333 -53 45 -74s43.167 -37.333 70.5 -49s57.333 -17.5 90 -17.5c45.333 0 84.833 14.5 118.5 43.5s55.834 67.5 66.501 115.5h-64z" />
    <glyph glyph-name="ordfeminine" unicode="&#xaa;" horiz-adv-x="266" 
d="M76 635c2.66699 16 8.33203 28.8359 16.999 38.5029s21 14.5 37 14.5c28 0 42 -16 42 -48v-18c-16.667 -4 -33.667 -9.33301 -51 -16s-33.666 -15.334 -48.999 -26.001s-27.833 -23.5 -37.5 -38.5s-14.5 -31.5 -14.5 -49.5c0 -26 8 -46.5 24 -61.5s37.333 -22.5 64 -22.5
c12 0 24.667 2.16699 38 6.5s23.333 10.166 30 17.499l6 -18h52c-5.33301 7.33301 -8 25.666 -8 54.999v174c0 28 -8.33301 49.833 -25 65.5s-40.667 23.5 -72 23.5c-28.667 0 -51.167 -8.5 -67.5 -25.5s-26.833 -38.833 -31.5 -65.5zM171.998 484.003
c-5.33301 -8.66699 -13.167 -16.167 -23.5 -22.5s-21.5 -9.5 -33.5 -9.5c-15.333 0 -26 3 -32 9s-9 16.333 -9 31c0 18 10.167 34.167 30.5 48.5s42.833 25.5 67.5 33.5v-90z" />
    <glyph glyph-name="guillemotleft" unicode="&#xab;" horiz-adv-x="500" 
d="M274 106l-128 154l128 154h-68l-124 -154l124 -154h68zM418 106l-128 154l128 154h-68l-124 -154l124 -154h68z" />
    <glyph glyph-name="logicalnot" unicode="&#xac;" horiz-adv-x="600" 
d="M494 120h66v280h-520v-66h454v-214z" />
    <glyph glyph-name="minus" unicode="&#xad;" horiz-adv-x="600" 
d="M40 227h520v66h-520v-66z" />
    <glyph glyph-name="minus" unicode="&#x2212;" horiz-adv-x="600" 
d="M40 227h520v66h-520v-66z" />
    <glyph glyph-name="registered" unicode="&#xae;" horiz-adv-x="800" 
d="M325 332h66.999l115 -190h79l-117 192c30.667 4.66699 55.834 16.667 75.501 36s29.5 47 29.5 83c0 82 -50 123 -150 123h-165v-434h66v190zM324.999 520h88c34 0 58.333 -5 73 -15s22 -26.333 22 -49c0 -28 -8 -46.333 -24 -55s-45 -13 -87 -13h-72v132zM400.999 -10
c50 0 97.668 9.33301 143.001 28s85.333 45 120 79s61.667 73.667 81 119s29 94 29 146c0 51.333 -9.66699 99.666 -29 144.999s-46.333 84.833 -81 118.5s-74.667 59.834 -120 78.501s-93 28 -143 28c-50.667 0 -98.667 -9.33301 -144 -28s-85.333 -44.834 -120 -78.501
s-61.834 -73.167 -81.501 -118.5s-29.5 -93.666 -29.5 -144.999c0 -52 9.66699 -100.667 29 -146s46.5 -85 81.5 -119s75.167 -60.333 120.5 -79s93.333 -28 144 -28zM401 50c-42 0 -81.6689 7.83301 -119.002 23.5s-69.666 37.667 -96.999 66s-48.666 61.5 -63.999 99.5
s-23 79 -23 123c0 43.333 7.66699 83.833 23 121.5s36.833 70.667 64.5 99s60 50.333 97 66s76.5 23.5 118.5 23.5s81.333 -7.83301 118 -23.5s68.667 -37.667 96 -66s48.666 -61.333 63.999 -99s23 -78.167 23 -121.5c0 -44 -7.66699 -85 -23 -123
s-36.666 -71.167 -63.999 -99.5s-59.333 -50.333 -96 -66s-76 -23.5 -118 -23.5z" />
    <glyph glyph-name="macron" unicode="&#xaf;" horiz-adv-x="222" 
d="M244 614v48h-266v-48h266z" />
    <glyph glyph-name="degree" unicode="&#xb0;" horiz-adv-x="400" 
d="M296 584c0 -28 -9.16699 -52 -27.5 -72s-41.166 -30 -68.499 -30s-50.166 10 -68.499 30s-27.5 44 -27.5 72s9.16699 52 27.5 72s41.166 30 68.499 30s50.166 -10 68.499 -30s27.5 -44 27.5 -72zM52 584c0 -40.667 14.333 -75.334 43 -104.001
c14 -14 30 -24.833 48 -32.5s37 -11.5 57 -11.5s39 3.83301 57 11.5s34 18.5 48 32.5c28.667 28.667 43 63.334 43 104.001s-14.333 75.334 -43 104.001c-14 14 -30 24.833 -48 32.5s-37 11.5 -57 11.5s-39 -3.83301 -57 -11.5s-34 -18.5 -48 -32.5
c-28.667 -28.667 -43 -63.334 -43 -104.001z" />
    <glyph glyph-name="plusminus" unicode="&#xb1;" horiz-adv-x="600" 
d="M267 350h-227v-66h227v-170h66v170h227v66h-227v170h-66v-170zM40 0h520v66h-520v-66z" />
    <glyph glyph-name="twosuperior" unicode="&#xb2;" horiz-adv-x="266" 
d="M244 292l0.000976562 51.999h-162c8 18 17.667 35 29 51s26.333 35.667 45 59c28.667 34.667 50.167 64.5 64.5 89.5s21.5 52.167 21.5 81.5c0 34 -9.5 60.333 -28.5 79s-44.5 28 -76.5 28c-31.333 0 -57 -9.66699 -77 -29s-31.333 -52 -34 -98h50
c2.66699 28 9.16699 47.5 19.5 58.5s24.5 16.5 42.5 16.5c29.333 0 44 -18.667 44 -56c0 -20.667 -5.83301 -41.167 -17.5 -61.5s-29.834 -46.166 -54.501 -77.499c-22 -28.667 -40 -53.667 -54 -75s-25.333 -44 -34 -68v-50h222z" />
    <glyph glyph-name="threesuperior" unicode="&#xb3;" horiz-adv-x="266" 
d="M84 636c0.666992 15.333 4.16797 26.501 10.501 33.501s17.5 10.5 33.5 10.5c15.333 0 26.5 -4.83301 33.5 -14.5s10.5 -23.5 10.5 -41.5c0 -29.333 -6.66699 -49.333 -20 -60s-36 -16 -68 -16v-52c33.333 -0.666992 57.666 -7 72.999 -19s23 -33 23 -63
c0 -25.333 -4.66699 -44.333 -14 -57s-22 -19 -38 -19c-20 0 -34 5.16699 -42 15.5s-12.667 24.5 -14 42.5h-54c0 -33.333 9.5 -60 28.5 -80s45.833 -30 80.5 -30c32.667 0 59 10.667 79 32s30 53.666 30 96.999c0 26.667 -5.16699 49.5 -15.5 68.5s-27.833 32.5 -52.5 40.5
v2c22 5.33301 37.5 17.333 46.5 36s13.5 40.334 13.5 65.001c0 34 -10 60 -30 78s-44.333 27 -73 27c-31.333 0 -55 -8.83301 -71 -26.5s-24 -40.834 -24 -69.501h54z" />
    <glyph glyph-name="acute" unicode="&#xb4;" horiz-adv-x="222" 
d="M230 716h-78l-98 -138h50z" />
    <glyph glyph-name="mu" unicode="&#xb5;" 
d="M372 520h-72v-406c-34 -42.667 -67 -64 -99 -64c-38 0 -57 28.667 -57 86v384h-72v-690h72v166c12 -4 26 -6 42 -6c16.667 0 36 6.5 58 19.5s42 28.833 60 47.5v-57h68v520z" />
    <glyph glyph-name="paragraph" unicode="&#xb6;" horiz-adv-x="500" 
d="M215 -84h65.999v752h85v-752h66v752h70v54h-281c-28 0 -54.333 -3.66699 -79 -11s-47 -19 -67 -35s-35.667 -36.333 -47 -61s-17 -53.667 -17 -87c0 -54.667 18.833 -99.667 56.5 -135s86.834 -53 147.501 -53v-424z" />
    <glyph glyph-name="periodcentered" unicode="&#xb7;" horiz-adv-x="222" 
d="M62 260c0 -13.333 4.83301 -24.833 14.5 -34.5s21.167 -14.5 34.5 -14.5s24.833 4.83301 34.5 14.5s14.5 21.167 14.5 34.5s-4.83301 24.833 -14.5 34.5s-21.167 14.5 -34.5 14.5s-24.833 -4.83301 -34.5 -14.5s-14.5 -21.167 -14.5 -34.5z" />
    <glyph glyph-name="periodcentered" unicode="&#x2219;" horiz-adv-x="222" 
d="M62 260c0 -13.333 4.83301 -24.833 14.5 -34.5s21.167 -14.5 34.5 -14.5s24.833 4.83301 34.5 14.5s14.5 21.167 14.5 34.5s-4.83301 24.833 -14.5 34.5s-21.167 14.5 -34.5 14.5s-24.833 -4.83301 -34.5 -14.5s-14.5 -21.167 -14.5 -34.5z" />
    <glyph glyph-name="cedilla" unicode="&#xb8;" horiz-adv-x="222" 
d="M8 -200c13.333 -6 27.167 -10.1689 41.5 -12.502s31.166 -3.5 50.499 -3.5c30 0 55.5 8.33301 76.5 25s31.5 38.334 31.5 65.001c0 22.667 -7.66699 40.334 -23 53.001s-34 19 -56 19c-13.333 0 -23.666 -2 -30.999 -6l-2 2l46 58h-38l-60 -82l14 -14
c17.333 6.66699 31.333 10 42 10c16.667 0 29.834 -4.16699 39.501 -12.5s14.5 -18.5 14.5 -30.5s-6.16699 -21.833 -18.5 -29.5s-28.5 -11.5 -48.5 -11.5c-11.333 0 -22.333 1.33301 -33 4s-21.334 6 -32.001 10z" />
    <glyph glyph-name="onesuperior" unicode="&#xb9;" horiz-adv-x="266" 
d="M54 292h160v48h-52v392h-43c-20.667 -16 -43 -26.667 -67 -32v-36l48 4v-328h-46v-48z" />
    <glyph glyph-name="ordmasculine" unicode="&#xba;" horiz-adv-x="233" 
d="M163 570c0 -45.333 -3.5 -76 -10.5 -92s-19.5 -24 -37.5 -24c-17.333 0 -29.333 8 -36 24s-10 46.667 -10 92s3.33301 76 10 92s18.667 24 36 24c18 0 30.5 -8 37.5 -24s10.5 -46.667 10.5 -92zM13 570c0 -56.667 8.16699 -97.832 24.5 -123.499
s42.166 -38.5 77.499 -38.5c36 0 62.333 13 79 39s25 67 25 123s-8.33301 97 -25 123s-43 39 -79 39c-35.333 0 -61.166 -12.833 -77.499 -38.5s-24.5 -66.834 -24.5 -123.501z" />
    <glyph glyph-name="guillemotright" unicode="&#xbb;" horiz-adv-x="500" 
d="M226 414l128 -154l-128 -154h68l124 154l-124 154h-68zM82 414l128 -154l-128 -154h68l124 154l-124 154h-68z" />
    <glyph glyph-name="onequarter" unicode="&#xbc;" horiz-adv-x="666" 
d="M520 355h2v-207h-83zM503 433l-120 -292v-45h139v-96h56v96h50v52h-50v285h-75zM153 -10l439 742h-62l-439 -742h62zM70 292h160v48h-52v392h-43c-20.667 -16 -43 -26.667 -67 -32v-36l48 4v-328h-46v-48z" />
    <glyph glyph-name="onehalf" unicode="&#xbd;" horiz-adv-x="666" 
d="M149 -10l439 742h-62l-439 -742h62zM70 292h160v48h-52v392h-43c-20.667 -16 -43 -26.667 -67 -32v-36l48 4v-328h-46v-48zM640 0l0.000976562 51.999h-162c8 18 17.667 35 29 51s26.333 35.667 45 59c28.667 34.667 50.167 64.5 64.5 89.5s21.5 52.167 21.5 81.5
c0 34 -9.5 60.333 -28.5 79s-44.5 28 -76.5 28c-31.333 0 -57 -9.66699 -77 -29s-31.333 -52 -34 -98h50c2.66699 28 9.16699 47.5 19.5 58.5s24.5 16.5 42.5 16.5c29.333 0 44 -18.667 44 -56c0 -20.667 -5.83301 -41.167 -17.5 -61.5s-29.834 -46.166 -54.501 -77.499
c-22 -28.667 -40 -53.667 -54 -75s-25.333 -44 -34 -68v-50h222z" />
    <glyph glyph-name="threequarters" unicode="&#xbe;" horiz-adv-x="666" 
d="M520 355h2v-207h-83zM503 433l-120 -292v-45h139v-96h56v96h50v52h-50v285h-75zM149 -10l439 742h-62l-439 -742h62zM104 636c0.666992 15.333 4.16797 26.501 10.501 33.501s17.5 10.5 33.5 10.5c15.333 0 26.5 -4.83301 33.5 -14.5s10.5 -23.5 10.5 -41.5
c0 -29.333 -6.66699 -49.333 -20 -60s-36 -16 -68 -16v-52c33.333 -0.666992 57.666 -7 72.999 -19s23 -33 23 -63c0 -25.333 -4.66699 -44.333 -14 -57s-22 -19 -38 -19c-20 0 -34 5.16699 -42 15.5s-12.667 24.5 -14 42.5h-54c0 -33.333 9.5 -60 28.5 -80
s45.833 -30 80.5 -30c32.667 0 59 10.667 79 32s30 53.666 30 96.999c0 26.667 -5.16699 49.5 -15.5 68.5s-27.833 32.5 -52.5 40.5v2c22 5.33301 37.5 17.333 46.5 36s13.5 40.334 13.5 65.001c0 34 -10 60 -30 78s-44.333 27 -73 27c-31.333 0 -55 -8.83301 -71 -26.5
s-24 -40.834 -24 -69.501h54z" />
    <glyph glyph-name="questiondown" unicode="&#xbf;" horiz-adv-x="389" 
d="M202 306l-0.00195312 -40.002c0 -31.333 -5.33301 -58.166 -16 -80.499s-27 -48.5 -49 -78.5c-24 -32.667 -42.167 -62 -54.5 -88s-18.5 -58.333 -18.5 -97c0 -42.667 12.167 -75.667 36.5 -99s54.5 -35 90.5 -35c38.667 0 69.834 12.5 93.501 37.5
s37.167 57.167 40.5 96.5l-60 12c-2 -22 -9.16699 -41.833 -21.5 -59.5s-28.833 -26.5 -49.5 -26.5c-15.333 0 -28.833 6.33301 -40.5 19s-17.5 31 -17.5 55c0 30.667 4.83301 57.334 14.5 80.001s24.5 49 44.5 79c20.667 31.333 36.334 59.5 47.001 84.5s16 55.167 16 90.5
v50h-56zM277.998 425.998v94h-84v-94h84z" />
    <glyph glyph-name="Agrave" unicode="&#xc0;" 
d="M229 760h50l-98 138h-78zM221 668h2l80 -388h-162zM168 722l-159 -722h78l43 214h184l43 -214h78l-159 722h-108z" />
    <glyph glyph-name="Aacute" unicode="&#xc1;" 
d="M341 898h-78l-98 -138h50zM221 668h2l80 -388h-162zM168 722l-159 -722h78l43 214h184l43 -214h78l-159 722h-108z" />
    <glyph glyph-name="Acircumflex" unicode="&#xc2;" 
d="M87 760h64l71 102l71 -102h64l-101 138h-68zM221 668h2l80 -388h-162zM168 722l-159 -722h78l43 214h184l43 -214h78l-159 722h-108z" />
    <glyph glyph-name="Atilde" unicode="&#xc3;" 
d="M117 770c1.33301 14.667 5.16895 26.667 11.502 36s15.833 14 28.5 14c8 0 16.667 -1.83301 26 -5.5s21.333 -9.16699 36 -16.5c14 -7.33301 26.167 -12.833 36.5 -16.5s20.166 -5.5 29.499 -5.5c26 0 45 9.33301 57 28s19 42 21 70h-36
c-2 -15.333 -5.5 -27.5 -10.5 -36.5s-14.167 -13.5 -27.5 -13.5c-10.667 0 -29.334 6.66699 -56.001 20l-4 2c-29.333 14.667 -53 22 -71 22c-22 0 -40.167 -10.333 -54.5 -31s-21.833 -43 -22.5 -67h36zM221.003 668h2l80 -388h-162zM168.003 722l-159 -722h78l43 214h184
l43 -214h78l-159 722h-108z" />
    <glyph glyph-name="Adieresis" unicode="&#xc4;" 
d="M123 770h66v102h-66v-102zM255 770h66v102h-66v-102zM221 668h2l80 -388h-162zM168 722l-159 -722h78l43 214h184l43 -214h78l-159 722h-108z" />
    <glyph glyph-name="Aring" unicode="&#xc5;" 
d="M127 855c0 -26 9.16699 -48.333 27.5 -67s40.833 -28 67.5 -28s49.167 9.33301 67.5 28s27.5 41 27.5 67c0 26.667 -9.16699 49.167 -27.5 67.5s-40.833 27.5 -67.5 27.5s-49.167 -9.16699 -67.5 -27.5s-27.5 -40.833 -27.5 -67.5zM169 855c0 14 5.33301 26.333 16 37
s23 16 37 16s26.333 -5.33301 37 -16s16 -23 16 -37s-5.33301 -26.333 -16 -37s-23 -16 -37 -16s-26.333 5.33301 -37 16s-16 23 -16 37zM221 668h2l80 -388h-162zM168 722l-159 -722h78l43 214h184l43 -214h78l-159 722h-108z" />
    <glyph glyph-name="AE" unicode="&#xc6;" horiz-adv-x="722" 
d="M299 722l-290 -722h83l82 214h184v-214h328v66h-250v278h186v66h-186v246h238v66h-375zM200 280l156 398h2v-398h-158z" />
    <glyph glyph-name="Ccedilla" unicode="&#xc7;" horiz-adv-x="500" 
d="M147 -200c13.333 -6 27.167 -10.1689 41.5 -12.502s31.166 -3.5 50.499 -3.5c30 0 55.5 8.33301 76.5 25s31.5 38.334 31.5 65.001c0 22.667 -7.66699 40.334 -23 53.001s-34 19 -56 19c-13.333 0 -23.666 -2 -30.999 -6l-2 2l46 58h-38l-60 -82l14 -14
c17.333 6.66699 31.333 10 42 10c16.667 0 29.834 -4.16699 39.501 -12.5s14.5 -18.5 14.5 -30.5s-6.16699 -21.833 -18.5 -29.5s-28.5 -11.5 -48.5 -11.5c-11.333 0 -22.333 1.33301 -33 4s-21.334 6 -32.001 10zM440.001 503.998c-6 76 -24.834 132.997 -56.501 170.997
s-74.5 57 -128.5 57c-32.667 0 -61.834 -6.66699 -87.501 -20s-47.667 -34.666 -66 -63.999s-32.166 -67.666 -41.499 -114.999s-14 -104.666 -14 -171.999c0 -66.667 4.83301 -123.834 14.5 -171.501s23.5 -86.167 41.5 -115.5s39.833 -50.666 65.5 -63.999
s54.834 -20 87.501 -20c61.333 0 109 21.667 143 65s51.333 105 52 185h-78c-0.666992 -64.667 -10.834 -111.5 -30.501 -140.5s-48.5 -43.5 -86.5 -43.5c-46 0 -79.333 23.167 -100 69.5s-31 124.833 -31 235.5s10.333 189.167 31 235.5s54 69.5 100 69.5
c31.333 0 55.833 -13 73.5 -39s28.834 -67 33.501 -123h78z" />
    <glyph glyph-name="Egrave" unicode="&#xc8;" 
d="M235 760h50l-98 138h-78zM66 722v-722h342v66h-264v278h186v66h-186v246h252v66h-330z" />
    <glyph glyph-name="Eacute" unicode="&#xc9;" 
d="M347 898h-78l-98 -138h50zM66 722v-722h342v66h-264v278h186v66h-186v246h252v66h-330z" />
    <glyph glyph-name="Ecircumflex" unicode="&#xca;" 
d="M93 760h64l71 102l71 -102h64l-101 138h-68zM66 722v-722h342v66h-264v278h186v66h-186v246h252v66h-330z" />
    <glyph glyph-name="Edieresis" unicode="&#xcb;" 
d="M129 770h66v102h-66v-102zM261 770h66v102h-66v-102zM66 722v-722h342v66h-264v278h186v66h-186v246h252v66h-330z" />
    <glyph glyph-name="Igrave" unicode="&#xcc;" horiz-adv-x="222" 
d="M118 760h50l-98 138h-78zM72 722v-722h78v722h-78z" />
    <glyph glyph-name="Iacute" unicode="&#xcd;" horiz-adv-x="222" 
d="M230 898h-78l-98 -138h50zM72 722v-722h78v722h-78z" />
    <glyph glyph-name="Icircumflex" unicode="&#xce;" horiz-adv-x="222" 
d="M-24 760h64l71 102l71 -102h64l-101 138h-68zM72 722v-722h78v722h-78z" />
    <glyph glyph-name="Idieresis" unicode="&#xcf;" horiz-adv-x="222" 
d="M12 770h66v102h-66v-102zM144 770h66v102h-66v-102zM72 722v-722h78v722h-78z" />
    <glyph glyph-name="Eth" unicode="&#xd0;" horiz-adv-x="500" 
d="M144 410v246h42c30.667 0 56.834 -4.16699 78.501 -12.5s40 -23 55 -44s26.5 -50.667 34.5 -89s12 -88.166 12 -149.499c0 -60.667 -4 -110.334 -12 -149.001s-19.5 -68.5 -34.5 -89.5s-33.333 -35.667 -55 -44s-47.834 -12.5 -78.501 -12.5h-42v278h120v66h-120zM12 410
v-66.002h54v-344h134c39.333 0 74 6 104 18s55.333 31.833 76 59.5s36.5 64.834 47.5 111.501s16.5 104 16.5 172s-5.5 125.333 -16.5 172s-26.833 83.834 -47.5 111.501s-46 47.5 -76 59.5s-64.667 18 -104 18h-134v-312h-54z" />
    <glyph glyph-name="Ntilde" unicode="&#xd1;" horiz-adv-x="500" 
d="M145 770c1.33301 14.667 5.16895 26.667 11.502 36s15.833 14 28.5 14c8 0 16.667 -1.83301 26 -5.5s21.333 -9.16699 36 -16.5c14 -7.33301 26.167 -12.833 36.5 -16.5s20.166 -5.5 29.499 -5.5c26 0 45 9.33301 57 28s19 42 21 70h-36
c-2 -15.333 -5.5 -27.5 -10.5 -36.5s-14.167 -13.5 -27.5 -13.5c-10.667 0 -29.334 6.66699 -56.001 20l-4 2c-29.333 14.667 -53 22 -71 22c-22 0 -40.167 -10.333 -54.5 -31s-21.833 -43 -22.5 -67h36zM56.0029 722v-722h78v628h2l224 -628h84v722h-78v-532h-2l-186 532
h-122z" />
    <glyph glyph-name="Ograve" unicode="&#xd2;" horiz-adv-x="500" 
d="M257 760h50l-98 138h-78zM376 361c0 -60 -3.16699 -109.833 -9.5 -149.5s-15.166 -70.834 -26.499 -93.501s-24.5 -38.667 -39.5 -48s-31.833 -14 -50.5 -14s-35.5 4.66699 -50.5 14s-28.167 25.333 -39.5 48s-20.166 53.834 -26.499 93.501s-9.5 89.5 -9.5 149.5
s3.16699 109.833 9.5 149.5s15.166 70.834 26.499 93.501s24.5 38.667 39.5 48s31.833 14 50.5 14s35.5 -4.66699 50.5 -14s28.167 -25.333 39.5 -48s20.166 -53.834 26.499 -93.501s9.5 -89.5 9.5 -149.5zM454 361c0 66 -4.83203 122.667 -14.499 170
s-23.334 85.833 -41.001 115.5s-39 51.334 -64 65.001s-53.167 20.5 -84.5 20.5s-59.5 -6.83301 -84.5 -20.5s-46.333 -35.334 -64 -65.001s-31.334 -68.167 -41.001 -115.5s-14.5 -104 -14.5 -170s4.83301 -122.667 14.5 -170s23.5 -85.833 41.5 -115.5
s39.333 -51.334 64 -65.001s52.667 -20.5 84 -20.5s59.5 6.83301 84.5 20.5s46.333 35.334 64 65.001s31.334 68.167 41.001 115.5s14.5 104 14.5 170z" />
    <glyph glyph-name="Oacute" unicode="&#xd3;" horiz-adv-x="500" 
d="M369 898h-78l-98 -138h50zM376 361c0 -60 -3.16699 -109.833 -9.5 -149.5s-15.166 -70.834 -26.499 -93.501s-24.5 -38.667 -39.5 -48s-31.833 -14 -50.5 -14s-35.5 4.66699 -50.5 14s-28.167 25.333 -39.5 48s-20.166 53.834 -26.499 93.501s-9.5 89.5 -9.5 149.5
s3.16699 109.833 9.5 149.5s15.166 70.834 26.499 93.501s24.5 38.667 39.5 48s31.833 14 50.5 14s35.5 -4.66699 50.5 -14s28.167 -25.333 39.5 -48s20.166 -53.834 26.499 -93.501s9.5 -89.5 9.5 -149.5zM454 361c0 66 -4.83203 122.667 -14.499 170
s-23.334 85.833 -41.001 115.5s-39 51.334 -64 65.001s-53.167 20.5 -84.5 20.5s-59.5 -6.83301 -84.5 -20.5s-46.333 -35.334 -64 -65.001s-31.334 -68.167 -41.001 -115.5s-14.5 -104 -14.5 -170s4.83301 -122.667 14.5 -170s23.5 -85.833 41.5 -115.5
s39.333 -51.334 64 -65.001s52.667 -20.5 84 -20.5s59.5 6.83301 84.5 20.5s46.333 35.334 64 65.001s31.334 68.167 41.001 115.5s14.5 104 14.5 170z" />
    <glyph glyph-name="Ocircumflex" unicode="&#xd4;" horiz-adv-x="500" 
d="M115 760h64l71 102l71 -102h64l-101 138h-68zM376 361c0 -60 -3.16699 -109.833 -9.5 -149.5s-15.166 -70.834 -26.499 -93.501s-24.5 -38.667 -39.5 -48s-31.833 -14 -50.5 -14s-35.5 4.66699 -50.5 14s-28.167 25.333 -39.5 48s-20.166 53.834 -26.499 93.501
s-9.5 89.5 -9.5 149.5s3.16699 109.833 9.5 149.5s15.166 70.834 26.499 93.501s24.5 38.667 39.5 48s31.833 14 50.5 14s35.5 -4.66699 50.5 -14s28.167 -25.333 39.5 -48s20.166 -53.834 26.499 -93.501s9.5 -89.5 9.5 -149.5zM454 361c0 66 -4.83203 122.667 -14.499 170
s-23.334 85.833 -41.001 115.5s-39 51.334 -64 65.001s-53.167 20.5 -84.5 20.5s-59.5 -6.83301 -84.5 -20.5s-46.333 -35.334 -64 -65.001s-31.334 -68.167 -41.001 -115.5s-14.5 -104 -14.5 -170s4.83301 -122.667 14.5 -170s23.5 -85.833 41.5 -115.5
s39.333 -51.334 64 -65.001s52.667 -20.5 84 -20.5s59.5 6.83301 84.5 20.5s46.333 35.334 64 65.001s31.334 68.167 41.001 115.5s14.5 104 14.5 170z" />
    <glyph glyph-name="Otilde" unicode="&#xd5;" horiz-adv-x="500" 
d="M145 770c1.33301 14.667 5.16895 26.667 11.502 36s15.833 14 28.5 14c8 0 16.667 -1.83301 26 -5.5s21.333 -9.16699 36 -16.5c14 -7.33301 26.167 -12.833 36.5 -16.5s20.166 -5.5 29.499 -5.5c26 0 45 9.33301 57 28s19 42 21 70h-36
c-2 -15.333 -5.5 -27.5 -10.5 -36.5s-14.167 -13.5 -27.5 -13.5c-10.667 0 -29.334 6.66699 -56.001 20l-4 2c-29.333 14.667 -53 22 -71 22c-22 0 -40.167 -10.333 -54.5 -31s-21.833 -43 -22.5 -67h36zM376.003 361c0 -60 -3.16699 -109.833 -9.5 -149.5
s-15.166 -70.834 -26.499 -93.501s-24.5 -38.667 -39.5 -48s-31.833 -14 -50.5 -14s-35.5 4.66699 -50.5 14s-28.167 25.333 -39.5 48s-20.166 53.834 -26.499 93.501s-9.5 89.5 -9.5 149.5s3.16699 109.833 9.5 149.5s15.166 70.834 26.499 93.501s24.5 38.667 39.5 48
s31.833 14 50.5 14s35.5 -4.66699 50.5 -14s28.167 -25.333 39.5 -48s20.166 -53.834 26.499 -93.501s9.5 -89.5 9.5 -149.5zM454.003 361c0 66 -4.83203 122.667 -14.499 170s-23.334 85.833 -41.001 115.5s-39 51.334 -64 65.001s-53.167 20.5 -84.5 20.5
s-59.5 -6.83301 -84.5 -20.5s-46.333 -35.334 -64 -65.001s-31.334 -68.167 -41.001 -115.5s-14.5 -104 -14.5 -170s4.83301 -122.667 14.5 -170s23.5 -85.833 41.5 -115.5s39.333 -51.334 64 -65.001s52.667 -20.5 84 -20.5s59.5 6.83301 84.5 20.5
s46.333 35.334 64 65.001s31.334 68.167 41.001 115.5s14.5 104 14.5 170z" />
    <glyph glyph-name="Odieresis" unicode="&#xd6;" horiz-adv-x="500" 
d="M151 770h66v102h-66v-102zM283 770h66v102h-66v-102zM376 361c0 -60 -3.16699 -109.833 -9.5 -149.5s-15.166 -70.834 -26.499 -93.501s-24.5 -38.667 -39.5 -48s-31.833 -14 -50.5 -14s-35.5 4.66699 -50.5 14s-28.167 25.333 -39.5 48s-20.166 53.834 -26.499 93.501
s-9.5 89.5 -9.5 149.5s3.16699 109.833 9.5 149.5s15.166 70.834 26.499 93.501s24.5 38.667 39.5 48s31.833 14 50.5 14s35.5 -4.66699 50.5 -14s28.167 -25.333 39.5 -48s20.166 -53.834 26.499 -93.501s9.5 -89.5 9.5 -149.5zM454 361c0 66 -4.83203 122.667 -14.499 170
s-23.334 85.833 -41.001 115.5s-39 51.334 -64 65.001s-53.167 20.5 -84.5 20.5s-59.5 -6.83301 -84.5 -20.5s-46.333 -35.334 -64 -65.001s-31.334 -68.167 -41.001 -115.5s-14.5 -104 -14.5 -170s4.83301 -122.667 14.5 -170s23.5 -85.833 41.5 -115.5
s39.333 -51.334 64 -65.001s52.667 -20.5 84 -20.5s59.5 6.83301 84.5 20.5s46.333 35.334 64 65.001s31.334 68.167 41.001 115.5s14.5 104 14.5 170z" />
    <glyph glyph-name="multiply" unicode="&#xd7;" horiz-adv-x="600" 
d="M560 472l-48 48l-212 -213l-212 213l-48 -48l212 -212l-212 -212l48 -48l212 213l212 -213l48 48l-212 212z" />
    <glyph glyph-name="Oslash" unicode="&#xd8;" horiz-adv-x="500" 
d="M354 564l1.99902 0.000976562c13.333 -52 20 -119.667 20 -203c0 -60 -3.16699 -109.833 -9.5 -149.5s-15.166 -70.834 -26.499 -93.501s-24.5 -38.667 -39.5 -48s-31.833 -14 -50.5 -14c-16 0 -30.5 3.33301 -43.5 10s-24.833 18 -35.5 34zM144.999 167.001
l-1.99902 -0.00195312c-12.667 46.667 -19 111.334 -19 194.001c0 60 3.16699 109.833 9.5 149.5s15.166 70.834 26.499 93.501s24.5 38.667 39.5 48s31.833 14 50.5 14c30.667 0 56 -13 76 -39zM142 27.999c29.333 -25.333 65.335 -38.0029 108.002 -38.0029
c31.333 0 59.5 6.83301 84.5 20.5s46.333 35.334 64 65.001s31.334 68.167 41.001 115.5s14.5 104 14.5 170c0 68.667 -5.33301 127.334 -16 176.001s-26 88.334 -46 119.001l58 148h-54l-42 -106c-28.667 22.667 -63.334 34 -104.001 34
c-31.333 0 -59.5 -6.83301 -84.5 -20.5s-46.333 -35.334 -64 -65.001s-31.334 -68.167 -41.001 -115.5s-14.5 -104 -14.5 -170c0 -67.333 5.16699 -125.166 15.5 -173.499s25.166 -87.5 44.499 -117.5l-76 -190h54z" />
    <glyph glyph-name="Ugrave" unicode="&#xd9;" horiz-adv-x="500" 
d="M257 760h50l-98 138h-78zM66 722v-532c0 -61.333 15.167 -110 45.5 -146s76.5 -54 138.5 -54s108.167 18 138.5 54s45.5 84.667 45.5 146v532h-78v-530c0 -41.333 -7.83301 -74.333 -23.5 -99s-43.167 -37 -82.5 -37s-66.833 12.333 -82.5 37s-23.5 57.667 -23.5 99v530
h-78z" />
    <glyph glyph-name="Uacute" unicode="&#xda;" horiz-adv-x="500" 
d="M369 898h-78l-98 -138h50zM66 722v-532c0 -61.333 15.167 -110 45.5 -146s76.5 -54 138.5 -54s108.167 18 138.5 54s45.5 84.667 45.5 146v532h-78v-530c0 -41.333 -7.83301 -74.333 -23.5 -99s-43.167 -37 -82.5 -37s-66.833 12.333 -82.5 37s-23.5 57.667 -23.5 99v530
h-78z" />
    <glyph glyph-name="Ucircumflex" unicode="&#xdb;" horiz-adv-x="500" 
d="M115 760h64l71 102l71 -102h64l-101 138h-68zM66 722v-532c0 -61.333 15.167 -110 45.5 -146s76.5 -54 138.5 -54s108.167 18 138.5 54s45.5 84.667 45.5 146v532h-78v-530c0 -41.333 -7.83301 -74.333 -23.5 -99s-43.167 -37 -82.5 -37s-66.833 12.333 -82.5 37
s-23.5 57.667 -23.5 99v530h-78z" />
    <glyph glyph-name="Udieresis" unicode="&#xdc;" horiz-adv-x="500" 
d="M151 770h66v102h-66v-102zM283 770h66v102h-66v-102zM66 722v-532c0 -61.333 15.167 -110 45.5 -146s76.5 -54 138.5 -54s108.167 18 138.5 54s45.5 84.667 45.5 146v532h-78v-530c0 -41.333 -7.83301 -74.333 -23.5 -99s-43.167 -37 -82.5 -37s-66.833 12.333 -82.5 37
s-23.5 57.667 -23.5 99v530h-78z" />
    <glyph glyph-name="Yacute" unicode="&#xdd;" 
d="M341 898h-78l-98 -138h50zM16 722l168 -416v-306h78v306l166 416h-84l-120 -316l-124 316h-84z" />
    <glyph glyph-name="Thorn" unicode="&#xde;" 
d="M56 0h78v164h92c58 0 104.5 18 139.5 54s52.5 84 52.5 144s-17.5 108 -52.5 144s-81.5 54 -139.5 54h-92v162h-78v-722zM134 494h82c40 0 70.667 -11 92 -33s32 -55 32 -99s-10.667 -77 -32 -99s-52 -33 -92 -33h-82v264z" />
    <glyph glyph-name="germandbls" unicode="&#xdf;" 
d="M72 0l71.998 0.000976562v580c0 27.333 7.33301 49.5 22 66.5s33.334 25.5 56.001 25.5c24.667 0 44.834 -9.5 60.501 -28.5s23.5 -49.833 23.5 -92.5c0 -43.333 -6.83301 -74.166 -20.5 -92.499s-34.834 -28.5 -63.501 -30.5v-60c40 0 68 -13 84 -39s24 -71 24 -135
c0 -54 -6.33301 -91.5 -19 -112.5s-30 -31.5 -52 -31.5c-17.333 0 -33.666 4.66699 -48.999 14v-62c18 -8 36.333 -12 55 -12c20 0 38.167 3.5 54.5 10.5s30.666 18.833 42.999 35.5s22 39 29 67s10.5 62.333 10.5 103c0 30.667 -2.5 57.5 -7.5 80.5s-12 42 -21 57
s-19.167 27.167 -30.5 36.5s-23.666 17.333 -36.999 24c24 13.333 42 31.666 54 54.999s18 53.666 18 90.999c0 55.333 -14.5 99.5 -43.5 132.5s-67.833 49.5 -116.5 49.5c-44.667 0 -80.167 -15 -106.5 -45s-39.5 -65.667 -39.5 -107v-580z" />
    <glyph glyph-name="agrave" unicode="&#xe0;" 
d="M229 578h50l-98 138h-78zM128 368c4.66699 27.333 14.499 51.1689 29.499 71.502s35.167 30.5 60.5 30.5c23.333 0 41.666 -8.33301 54.999 -25s20 -39.334 20 -68.001v-37c-28.667 -6 -57 -14.833 -85 -26.5s-54.167 -26.334 -78.5 -44.001s-44 -38.834 -59 -63.501
s-22.5 -52 -22.5 -82c0 -40.667 12.333 -73.167 37 -97.5s57.334 -36.5 98.001 -36.5c16 0 34.833 5.33301 56.5 16s39.834 23.334 54.501 38.001l9 -44h75c-8.66699 13.333 -13 44 -13 92v290c0 46.667 -13 83 -39 109s-62.667 39 -110 39
c-43.333 0 -78 -14.167 -104 -42.5s-42.667 -64.833 -50 -109.5zM292.999 104.003c-15.333 -16 -31.1689 -28.998 -47.502 -38.998s-33.5 -15 -51.5 -15c-25.333 0 -44 7 -56 21s-18 33.667 -18 59c0 19.333 5.5 37.166 16.5 53.499s25.333 30.666 43 42.999
s36.334 23 56.001 32s38.834 16.167 57.501 21.5v-176z" />
    <glyph glyph-name="aacute" unicode="&#xe1;" 
d="M341 716h-78l-98 -138h50zM128 368c4.66699 27.333 14.499 51.1689 29.499 71.502s35.167 30.5 60.5 30.5c23.333 0 41.666 -8.33301 54.999 -25s20 -39.334 20 -68.001v-37c-28.667 -6 -57 -14.833 -85 -26.5s-54.167 -26.334 -78.5 -44.001s-44 -38.834 -59 -63.501
s-22.5 -52 -22.5 -82c0 -40.667 12.333 -73.167 37 -97.5s57.334 -36.5 98.001 -36.5c16 0 34.833 5.33301 56.5 16s39.834 23.334 54.501 38.001l9 -44h75c-8.66699 13.333 -13 44 -13 92v290c0 46.667 -13 83 -39 109s-62.667 39 -110 39
c-43.333 0 -78 -14.167 -104 -42.5s-42.667 -64.833 -50 -109.5zM292.999 104.003c-15.333 -16 -31.1689 -28.998 -47.502 -38.998s-33.5 -15 -51.5 -15c-25.333 0 -44 7 -56 21s-18 33.667 -18 59c0 19.333 5.5 37.166 16.5 53.499s25.333 30.666 43 42.999
s36.334 23 56.001 32s38.834 16.167 57.501 21.5v-176z" />
    <glyph glyph-name="acircumflex" unicode="&#xe2;" 
d="M87 578h64l71 102l71 -102h64l-101 138h-68zM128 368c4.66699 27.333 14.499 51.1689 29.499 71.502s35.167 30.5 60.5 30.5c23.333 0 41.666 -8.33301 54.999 -25s20 -39.334 20 -68.001v-37c-28.667 -6 -57 -14.833 -85 -26.5s-54.167 -26.334 -78.5 -44.001
s-44 -38.834 -59 -63.501s-22.5 -52 -22.5 -82c0 -40.667 12.333 -73.167 37 -97.5s57.334 -36.5 98.001 -36.5c16 0 34.833 5.33301 56.5 16s39.834 23.334 54.501 38.001l9 -44h75c-8.66699 13.333 -13 44 -13 92v290c0 46.667 -13 83 -39 109s-62.667 39 -110 39
c-43.333 0 -78 -14.167 -104 -42.5s-42.667 -64.833 -50 -109.5zM292.999 104.003c-15.333 -16 -31.1689 -28.998 -47.502 -38.998s-33.5 -15 -51.5 -15c-25.333 0 -44 7 -56 21s-18 33.667 -18 59c0 19.333 5.5 37.166 16.5 53.499s25.333 30.666 43 42.999
s36.334 23 56.001 32s38.834 16.167 57.501 21.5v-176z" />
    <glyph glyph-name="atilde" unicode="&#xe3;" 
d="M117 588c1.33301 14.667 5.16895 26.667 11.502 36s15.833 14 28.5 14c8 0 16.667 -1.83301 26 -5.5s21.333 -9.16699 36 -16.5c14 -7.33301 26.167 -12.833 36.5 -16.5s20.166 -5.5 29.499 -5.5c26 0 45 9.33301 57 28s19 42 21 70h-36
c-2 -15.333 -5.5 -27.5 -10.5 -36.5s-14.167 -13.5 -27.5 -13.5c-10.667 0 -29.334 6.66699 -56.001 20l-4 2c-29.333 14.667 -53 22 -71 22c-22 0 -40.167 -10.333 -54.5 -31s-21.833 -43 -22.5 -67h36zM128.003 368c4.66699 27.333 14.499 51.1689 29.499 71.502
s35.167 30.5 60.5 30.5c23.333 0 41.666 -8.33301 54.999 -25s20 -39.334 20 -68.001v-37c-28.667 -6 -57 -14.833 -85 -26.5s-54.167 -26.334 -78.5 -44.001s-44 -38.834 -59 -63.501s-22.5 -52 -22.5 -82c0 -40.667 12.333 -73.167 37 -97.5s57.334 -36.5 98.001 -36.5
c16 0 34.833 5.33301 56.5 16s39.834 23.334 54.501 38.001l9 -44h75c-8.66699 13.333 -13 44 -13 92v290c0 46.667 -13 83 -39 109s-62.667 39 -110 39c-43.333 0 -78 -14.167 -104 -42.5s-42.667 -64.833 -50 -109.5zM293.002 104.003
c-15.333 -16 -31.1689 -28.998 -47.502 -38.998s-33.5 -15 -51.5 -15c-25.333 0 -44 7 -56 21s-18 33.667 -18 59c0 19.333 5.5 37.166 16.5 53.499s25.333 30.666 43 42.999s36.334 23 56.001 32s38.834 16.167 57.501 21.5v-176z" />
    <glyph glyph-name="adieresis" unicode="&#xe4;" 
d="M123 588h66v102h-66v-102zM255 588h66v102h-66v-102zM128 368c4.66699 27.333 14.499 51.1689 29.499 71.502s35.167 30.5 60.5 30.5c23.333 0 41.666 -8.33301 54.999 -25s20 -39.334 20 -68.001v-37c-28.667 -6 -57 -14.833 -85 -26.5s-54.167 -26.334 -78.5 -44.001
s-44 -38.834 -59 -63.501s-22.5 -52 -22.5 -82c0 -40.667 12.333 -73.167 37 -97.5s57.334 -36.5 98.001 -36.5c16 0 34.833 5.33301 56.5 16s39.834 23.334 54.501 38.001l9 -44h75c-8.66699 13.333 -13 44 -13 92v290c0 46.667 -13 83 -39 109s-62.667 39 -110 39
c-43.333 0 -78 -14.167 -104 -42.5s-42.667 -64.833 -50 -109.5zM292.999 104.003c-15.333 -16 -31.1689 -28.998 -47.502 -38.998s-33.5 -15 -51.5 -15c-25.333 0 -44 7 -56 21s-18 33.667 -18 59c0 19.333 5.5 37.166 16.5 53.499s25.333 30.666 43 42.999
s36.334 23 56.001 32s38.834 16.167 57.501 21.5v-176z" />
    <glyph glyph-name="aring" unicode="&#xe5;" 
d="M127 673c0 -26 9.16699 -48.333 27.5 -67s40.833 -28 67.5 -28s49.167 9.33301 67.5 28s27.5 41 27.5 67c0 26.667 -9.16699 49.167 -27.5 67.5s-40.833 27.5 -67.5 27.5s-49.167 -9.16699 -67.5 -27.5s-27.5 -40.833 -27.5 -67.5zM169 673c0 14 5.33301 26.333 16 37
s23 16 37 16s26.333 -5.33301 37 -16s16 -23 16 -37s-5.33301 -26.333 -16 -37s-23 -16 -37 -16s-26.333 5.33301 -37 16s-16 23 -16 37zM128 368c4.66699 27.333 14.499 51.1689 29.499 71.502s35.167 30.5 60.5 30.5c23.333 0 41.666 -8.33301 54.999 -25
s20 -39.334 20 -68.001v-37c-28.667 -6 -57 -14.833 -85 -26.5s-54.167 -26.334 -78.5 -44.001s-44 -38.834 -59 -63.501s-22.5 -52 -22.5 -82c0 -40.667 12.333 -73.167 37 -97.5s57.334 -36.5 98.001 -36.5c16 0 34.833 5.33301 56.5 16s39.834 23.334 54.501 38.001
l9 -44h75c-8.66699 13.333 -13 44 -13 92v290c0 46.667 -13 83 -39 109s-62.667 39 -110 39c-43.333 0 -78 -14.167 -104 -42.5s-42.667 -64.833 -50 -109.5zM292.999 104.003c-15.333 -16 -31.1689 -28.998 -47.502 -38.998s-33.5 -15 -51.5 -15c-25.333 0 -44 7 -56 21
s-18 33.667 -18 59c0 19.333 5.5 37.166 16.5 53.499s25.333 30.666 43 42.999s36.334 23 56.001 32s38.834 16.167 57.501 21.5v-176z" />
    <glyph glyph-name="ae" unicode="&#xe6;" horiz-adv-x="611" 
d="M257 104c-8.66699 -14.667 -20.666 -27.333 -35.999 -38s-30.333 -16 -45 -16c-25.333 0 -44 7 -56 21s-18 33.667 -18 59c0 19.333 5.33301 37.166 16 53.499s24.167 30.5 40.5 42.5s32.666 22.333 48.999 31s32.833 16.334 49.5 23.001v-176zM329.001 308.001
c0.666992 54.667 9 95.333 25 122s36.667 40 62 40c31.333 0 53.5 -12.5 66.5 -37.5s19.833 -66.5 20.5 -124.5h-174zM575.001 248l-0.00195312 34.001c0 78 -13.167 138.833 -39.5 182.5s-66.166 65.5 -119.499 65.5c-45.333 0 -83 -21.333 -113 -64
c-10 19.333 -23.833 34.833 -41.5 46.5s-39.167 17.5 -64.5 17.5c-43.333 0 -77.833 -14.167 -103.5 -42.5s-42.167 -64.833 -49.5 -109.5l66 -10c4.66699 26.667 14.334 50.334 29.001 71.001s31.667 31 51 31c20.667 0 37 -7.83301 49 -23.5s18 -38.834 18 -69.501v-37
c-24.667 -6.66699 -49.834 -15.667 -75.501 -27s-50 -25.833 -73 -43.5s-41.833 -38.834 -56.5 -63.501s-22 -52 -22 -82c0 -40.667 12.333 -73.167 37 -97.5s57.334 -36.5 98.001 -36.5c18 0 38 5 60 15s45.333 28.667 70 56c13.333 -25.333 30.833 -43.5 52.5 -54.5
s47.5 -16.5 77.5 -16.5c41.333 0 76.166 14.667 104.499 44s45.5 64.666 51.5 105.999l-68 8c-5.33301 -28 -14.833 -51.333 -28.5 -70s-33.167 -28 -58.5 -28c-12 0 -23.667 3 -35 9s-21.666 15.667 -30.999 29s-16.833 30.833 -22.5 52.5s-8.5 47.834 -8.5 78.501v29h246z
" />
    <glyph glyph-name="ccedilla" unicode="&#xe7;" horiz-adv-x="389" 
d="M92 -200c13.333 -6 27.167 -10.1689 41.5 -12.502s31.166 -3.5 50.499 -3.5c30 0 55.5 8.33301 76.5 25s31.5 38.334 31.5 65.001c0 22.667 -7.66699 40.334 -23 53.001s-34 19 -56 19c-13.333 0 -23.666 -2 -30.999 -6l-2 2l46 58h-38l-60 -82l14 -14
c17.333 6.66699 31.333 10 42 10c16.667 0 29.834 -4.16699 39.501 -12.5s14.5 -18.5 14.5 -30.5s-6.16699 -21.833 -18.5 -29.5s-28.5 -11.5 -48.5 -11.5c-11.333 0 -22.333 1.33301 -33 4s-21.334 6 -32.001 10zM346.001 365.998
c-7.33301 53.333 -23.168 93.999 -47.501 121.999s-59.166 42 -104.499 42c-54.667 0 -94.834 -21.667 -120.501 -65s-38.5 -111.666 -38.5 -204.999s12.833 -161.666 38.5 -204.999s65.834 -65 120.501 -65c45.333 0 80.833 15.667 106.5 47s41.5 73.666 47.5 126.999h-70
c-6 -43.333 -15.5 -73.166 -28.5 -89.499s-31.5 -24.5 -55.5 -24.5c-16 0 -29.333 3 -40 9s-19.5 16.667 -26.5 32s-12.167 36.666 -15.5 63.999s-5 62.333 -5 105c0 43.333 1.66699 78.5 5 105.5s8.5 48.167 15.5 63.5s15.833 26 26.5 32s24 9 40 9c23.333 0 42 -8 56 -24
s22.667 -42.667 26 -80h70z" />
    <glyph glyph-name="egrave" unicode="&#xe8;" horiz-adv-x="389" 
d="M202 578h50l-98 138h-78zM107 308c0.666992 58.667 8.33301 100.333 23 125s36 37 64 37c31.333 0 53.5 -12.5 66.5 -37.5s19.833 -66.5 20.5 -124.5h-174zM352.999 247.999v33.999c0 78 -13.167 138.833 -39.5 182.5s-66.166 65.5 -119.499 65.5
c-54.667 0 -94.834 -21.667 -120.501 -65s-38.5 -111.666 -38.5 -204.999s12.833 -161.666 38.5 -204.999s65.834 -65 120.501 -65c45.333 0 82.666 14.667 111.999 44s47 64.666 53 105.999l-68 8c-5.33301 -28 -14.833 -51.333 -28.5 -70s-33.167 -28 -58.5 -28
c-34.667 0 -59.5 12.5 -74.5 37.5s-22.5 68.833 -22.5 131.5v29h246z" />
    <glyph glyph-name="eacute" unicode="&#xe9;" horiz-adv-x="389" 
d="M314 716h-78l-98 -138h50zM107 308c0.666992 58.667 8.33301 100.333 23 125s36 37 64 37c31.333 0 53.5 -12.5 66.5 -37.5s19.833 -66.5 20.5 -124.5h-174zM352.999 247.999v33.999c0 78 -13.167 138.833 -39.5 182.5s-66.166 65.5 -119.499 65.5
c-54.667 0 -94.834 -21.667 -120.501 -65s-38.5 -111.666 -38.5 -204.999s12.833 -161.666 38.5 -204.999s65.834 -65 120.501 -65c45.333 0 82.666 14.667 111.999 44s47 64.666 53 105.999l-68 8c-5.33301 -28 -14.833 -51.333 -28.5 -70s-33.167 -28 -58.5 -28
c-34.667 0 -59.5 12.5 -74.5 37.5s-22.5 68.833 -22.5 131.5v29h246z" />
    <glyph glyph-name="ecircumflex" unicode="&#xea;" horiz-adv-x="389" 
d="M60 578h64l71 102l71 -102h64l-101 138h-68zM107 308c0.666992 58.667 8.33301 100.333 23 125s36 37 64 37c31.333 0 53.5 -12.5 66.5 -37.5s19.833 -66.5 20.5 -124.5h-174zM352.999 247.999v33.999c0 78 -13.167 138.833 -39.5 182.5s-66.166 65.5 -119.499 65.5
c-54.667 0 -94.834 -21.667 -120.501 -65s-38.5 -111.666 -38.5 -204.999s12.833 -161.666 38.5 -204.999s65.834 -65 120.501 -65c45.333 0 82.666 14.667 111.999 44s47 64.666 53 105.999l-68 8c-5.33301 -28 -14.833 -51.333 -28.5 -70s-33.167 -28 -58.5 -28
c-34.667 0 -59.5 12.5 -74.5 37.5s-22.5 68.833 -22.5 131.5v29h246z" />
    <glyph glyph-name="edieresis" unicode="&#xeb;" horiz-adv-x="389" 
d="M96 588h66v102h-66v-102zM228 588h66v102h-66v-102zM107 308c0.666992 58.667 8.33301 100.333 23 125s36 37 64 37c31.333 0 53.5 -12.5 66.5 -37.5s19.833 -66.5 20.5 -124.5h-174zM352.999 247.999v33.999c0 78 -13.167 138.833 -39.5 182.5
s-66.166 65.5 -119.499 65.5c-54.667 0 -94.834 -21.667 -120.501 -65s-38.5 -111.666 -38.5 -204.999s12.833 -161.666 38.5 -204.999s65.834 -65 120.501 -65c45.333 0 82.666 14.667 111.999 44s47 64.666 53 105.999l-68 8c-5.33301 -28 -14.833 -51.333 -28.5 -70
s-33.167 -28 -58.5 -28c-34.667 0 -59.5 12.5 -74.5 37.5s-22.5 68.833 -22.5 131.5v29h246z" />
    <glyph glyph-name="igrave" unicode="&#xec;" horiz-adv-x="222" 
d="M118 578h50l-98 138h-78zM75 0h72v520h-72v-520z" />
    <glyph glyph-name="iacute" unicode="&#xed;" horiz-adv-x="222" 
d="M230 716h-78l-98 -138h50zM75 0h72v520h-72v-520z" />
    <glyph glyph-name="icircumflex" unicode="&#xee;" horiz-adv-x="222" 
d="M-24 578h64l71 102l71 -102h64l-101 138h-68zM75 0h72v520h-72v-520z" />
    <glyph glyph-name="idieresis" unicode="&#xef;" horiz-adv-x="222" 
d="M12 588h66v102h-66v-102zM144 588h66v102h-66v-102zM75 0h72v520h-72v-520z" />
    <glyph glyph-name="eth" unicode="&#xf0;" horiz-adv-x="389" 
d="M107 260c0 43.333 1.66699 78.5 5 105.5s8.5 48.167 15.5 63.5s15.833 26 26.5 32s24 9 40 9s29.333 -3 40 -9s19.5 -16.667 26.5 -32s12.167 -36.5 15.5 -63.5s5 -62.167 5 -105.5c0 -42.667 -1.66699 -77.667 -5 -105s-8.5 -48.666 -15.5 -63.999
s-15.833 -26 -26.5 -32s-24 -9 -40 -9s-29.333 3 -40 9s-19.5 16.667 -26.5 32s-12.167 36.666 -15.5 63.999s-5 62.333 -5 105zM132 700c17.333 -16 33.332 -34.668 47.999 -56.001l-85 -32l24 -46l91 34c15.333 -26.667 26.333 -53 33 -79c-10 6 -26.333 9 -49 9
c-54.667 0 -94.834 -21.667 -120.501 -65s-38.5 -111.666 -38.5 -204.999s12.833 -161.666 38.5 -204.999s65.834 -65 120.501 -65s94.834 21.667 120.501 65s38.5 111.666 38.5 204.999c0 72.667 -6.33301 139.667 -19 201s-32.667 116 -60 164l93 35l-24 46l-98 -37
c-12 17.333 -27.667 35 -47 53z" />
    <glyph glyph-name="ntilde" unicode="&#xf1;" 
d="M117 588c1.33301 14.667 5.16895 26.667 11.502 36s15.833 14 28.5 14c8 0 16.667 -1.83301 26 -5.5s21.333 -9.16699 36 -16.5c14 -7.33301 26.167 -12.833 36.5 -16.5s20.166 -5.5 29.499 -5.5c26 0 45 9.33301 57 28s19 42 21 70h-36
c-2 -15.333 -5.5 -27.5 -10.5 -36.5s-14.167 -13.5 -27.5 -13.5c-10.667 0 -29.334 6.66699 -56.001 20l-4 2c-29.333 14.667 -53 22 -71 22c-22 0 -40.167 -10.333 -54.5 -31s-21.833 -43 -22.5 -67h36zM72.0029 0h71.999v406c34 42.667 67 64 99 64
c38 0 57 -28.667 57 -86v-384h72v394c0 46.667 -9.66699 81 -29 103s-47.666 33 -84.999 33c-16 0 -35.167 -6.5 -57.5 -19.5s-42.5 -28.833 -60.5 -47.5v57h-68v-520z" />
    <glyph glyph-name="ograve" unicode="&#xf2;" horiz-adv-x="389" 
d="M202 578h50l-98 138h-78zM107 260c0 43.333 1.66699 78.5 5 105.5s8.5 48.167 15.5 63.5s15.833 26 26.5 32s24 9 40 9s29.333 -3 40 -9s19.5 -16.667 26.5 -32s12.167 -36.5 15.5 -63.5s5 -62.167 5 -105.5c0 -42.667 -1.66699 -77.667 -5 -105
s-8.5 -48.666 -15.5 -63.999s-15.833 -26 -26.5 -32s-24 -9 -40 -9s-29.333 3 -40 9s-19.5 16.667 -26.5 32s-12.167 36.666 -15.5 63.999s-5 62.333 -5 105zM35 260c0 -93.333 12.833 -161.666 38.5 -204.999s65.834 -65 120.501 -65s94.834 21.667 120.501 65
s38.5 111.666 38.5 204.999s-12.833 161.666 -38.5 204.999s-65.834 65 -120.501 65s-94.834 -21.667 -120.501 -65s-38.5 -111.666 -38.5 -204.999z" />
    <glyph glyph-name="oacute" unicode="&#xf3;" horiz-adv-x="389" 
d="M314 716h-78l-98 -138h50zM107 260c0 43.333 1.66699 78.5 5 105.5s8.5 48.167 15.5 63.5s15.833 26 26.5 32s24 9 40 9s29.333 -3 40 -9s19.5 -16.667 26.5 -32s12.167 -36.5 15.5 -63.5s5 -62.167 5 -105.5c0 -42.667 -1.66699 -77.667 -5 -105
s-8.5 -48.666 -15.5 -63.999s-15.833 -26 -26.5 -32s-24 -9 -40 -9s-29.333 3 -40 9s-19.5 16.667 -26.5 32s-12.167 36.666 -15.5 63.999s-5 62.333 -5 105zM35 260c0 -93.333 12.833 -161.666 38.5 -204.999s65.834 -65 120.501 -65s94.834 21.667 120.501 65
s38.5 111.666 38.5 204.999s-12.833 161.666 -38.5 204.999s-65.834 65 -120.501 65s-94.834 -21.667 -120.501 -65s-38.5 -111.666 -38.5 -204.999z" />
    <glyph glyph-name="ocircumflex" unicode="&#xf4;" horiz-adv-x="389" 
d="M60 578h64l71 102l71 -102h64l-101 138h-68zM107 260c0 43.333 1.66699 78.5 5 105.5s8.5 48.167 15.5 63.5s15.833 26 26.5 32s24 9 40 9s29.333 -3 40 -9s19.5 -16.667 26.5 -32s12.167 -36.5 15.5 -63.5s5 -62.167 5 -105.5c0 -42.667 -1.66699 -77.667 -5 -105
s-8.5 -48.666 -15.5 -63.999s-15.833 -26 -26.5 -32s-24 -9 -40 -9s-29.333 3 -40 9s-19.5 16.667 -26.5 32s-12.167 36.666 -15.5 63.999s-5 62.333 -5 105zM35 260c0 -93.333 12.833 -161.666 38.5 -204.999s65.834 -65 120.501 -65s94.834 21.667 120.501 65
s38.5 111.666 38.5 204.999s-12.833 161.666 -38.5 204.999s-65.834 65 -120.501 65s-94.834 -21.667 -120.501 -65s-38.5 -111.666 -38.5 -204.999z" />
    <glyph glyph-name="otilde" unicode="&#xf5;" horiz-adv-x="389" 
d="M90 588c1.33301 14.667 5.16895 26.667 11.502 36s15.833 14 28.5 14c8 0 16.667 -1.83301 26 -5.5s21.333 -9.16699 36 -16.5c14 -7.33301 26.167 -12.833 36.5 -16.5s20.166 -5.5 29.499 -5.5c26 0 45 9.33301 57 28s19 42 21 70h-36
c-2 -15.333 -5.5 -27.5 -10.5 -36.5s-14.167 -13.5 -27.5 -13.5c-10.667 0 -29.334 6.66699 -56.001 20l-4 2c-29.333 14.667 -53 22 -71 22c-22 0 -40.167 -10.333 -54.5 -31s-21.833 -43 -22.5 -67h36zM107.003 260c0 43.333 1.66699 78.5 5 105.5s8.5 48.167 15.5 63.5
s15.833 26 26.5 32s24 9 40 9s29.333 -3 40 -9s19.5 -16.667 26.5 -32s12.167 -36.5 15.5 -63.5s5 -62.167 5 -105.5c0 -42.667 -1.66699 -77.667 -5 -105s-8.5 -48.666 -15.5 -63.999s-15.833 -26 -26.5 -32s-24 -9 -40 -9s-29.333 3 -40 9s-19.5 16.667 -26.5 32
s-12.167 36.666 -15.5 63.999s-5 62.333 -5 105zM35.0029 260c0 -93.333 12.833 -161.666 38.5 -204.999s65.834 -65 120.501 -65s94.834 21.667 120.501 65s38.5 111.666 38.5 204.999s-12.833 161.666 -38.5 204.999s-65.834 65 -120.501 65s-94.834 -21.667 -120.501 -65
s-38.5 -111.666 -38.5 -204.999z" />
    <glyph glyph-name="odieresis" unicode="&#xf6;" horiz-adv-x="389" 
d="M96 588h66v102h-66v-102zM228 588h66v102h-66v-102zM107 260c0 43.333 1.66699 78.5 5 105.5s8.5 48.167 15.5 63.5s15.833 26 26.5 32s24 9 40 9s29.333 -3 40 -9s19.5 -16.667 26.5 -32s12.167 -36.5 15.5 -63.5s5 -62.167 5 -105.5
c0 -42.667 -1.66699 -77.667 -5 -105s-8.5 -48.666 -15.5 -63.999s-15.833 -26 -26.5 -32s-24 -9 -40 -9s-29.333 3 -40 9s-19.5 16.667 -26.5 32s-12.167 36.666 -15.5 63.999s-5 62.333 -5 105zM35 260c0 -93.333 12.833 -161.666 38.5 -204.999s65.834 -65 120.501 -65
s94.834 21.667 120.501 65s38.5 111.666 38.5 204.999s-12.833 161.666 -38.5 204.999s-65.834 65 -120.501 65s-94.834 -21.667 -120.501 -65s-38.5 -111.666 -38.5 -204.999z" />
    <glyph glyph-name="divide" unicode="&#xf7;" horiz-adv-x="600" 
d="M560 227v66h-520v-66h520zM234 464c0 -18 6.5 -33.5 19.5 -46.5s28.5 -19.5 46.5 -19.5s33.5 6.5 46.5 19.5s19.5 28.5 19.5 46.5s-6.5 33.5 -19.5 46.5s-28.5 19.5 -46.5 19.5s-33.5 -6.5 -46.5 -19.5s-19.5 -28.5 -19.5 -46.5zM234 56c0 -18 6.5 -33.5 19.5 -46.5
s28.5 -19.5 46.5 -19.5s33.5 6.5 46.5 19.5s19.5 28.5 19.5 46.5s-6.5 33.5 -19.5 46.5s-28.5 19.5 -46.5 19.5s-33.5 -6.5 -46.5 -19.5s-19.5 -28.5 -19.5 -46.5z" />
    <glyph glyph-name="oslash" unicode="&#xf8;" horiz-adv-x="389" 
d="M118 124l-2 0.000976562c-6 31.333 -9 76.666 -9 135.999c0 43.333 1.66699 78.5 5 105.5s8.5 48.167 15.5 63.5s15.833 26 26.5 32s24 9 40 9c22.667 0 40 -6.33301 52 -19zM367 630.001l-50.001 0.000976562l-47 -120c-19.333 13.333 -44.666 20 -75.999 20
c-54.667 0 -94.834 -21.667 -120.501 -65s-38.5 -111.666 -38.5 -204.999c0 -104.667 16.333 -178.334 49 -221.001l-63 -159h50l51 128c18.667 -12 42.667 -18 72 -18c54.667 0 94.834 21.667 120.501 65s38.5 111.666 38.5 204.999c0 102 -15.667 174 -47 216z
M270.999 389.002l2 -0.000976562c5.33301 -30.667 8 -73.667 8 -129c0 -42.667 -1.66699 -77.667 -5 -105s-8.5 -48.666 -15.5 -63.999s-15.833 -26 -26.5 -32s-24 -9 -40 -9c-22 0 -38.333 5.66699 -49 17z" />
    <glyph glyph-name="ugrave" unicode="&#xf9;" 
d="M229 578h50l-98 138h-78zM372 520h-71.999v-406c-34 -42.667 -67 -64 -99 -64c-38 0 -57 28.667 -57 86v384h-72v-394c0 -46.667 9.66699 -81 29 -103s47.666 -33 84.999 -33c16.667 0 36 6.5 58 19.5s42 28.833 60 47.5v-57h68v520z" />
    <glyph glyph-name="uacute" unicode="&#xfa;" 
d="M341 716h-78l-98 -138h50zM372 520h-71.999v-406c-34 -42.667 -67 -64 -99 -64c-38 0 -57 28.667 -57 86v384h-72v-394c0 -46.667 9.66699 -81 29 -103s47.666 -33 84.999 -33c16.667 0 36 6.5 58 19.5s42 28.833 60 47.5v-57h68v520z" />
    <glyph glyph-name="ucircumflex" unicode="&#xfb;" 
d="M87 578h64l71 102l71 -102h64l-101 138h-68zM372 520h-71.999v-406c-34 -42.667 -67 -64 -99 -64c-38 0 -57 28.667 -57 86v384h-72v-394c0 -46.667 9.66699 -81 29 -103s47.666 -33 84.999 -33c16.667 0 36 6.5 58 19.5s42 28.833 60 47.5v-57h68v520z" />
    <glyph glyph-name="udieresis" unicode="&#xfc;" 
d="M123 588h66v102h-66v-102zM255 588h66v102h-66v-102zM372 520h-71.999v-406c-34 -42.667 -67 -64 -99 -64c-38 0 -57 28.667 -57 86v384h-72v-394c0 -46.667 9.66699 -81 29 -103s47.666 -33 84.999 -33c16.667 0 36 6.5 58 19.5s42 28.833 60 47.5v-57h68v520z" />
    <glyph glyph-name="yacute" unicode="&#xfd;" horiz-adv-x="333" 
d="M286 716h-78l-98 -138h50zM2 520l138 -516c-14.667 -76 -50.667 -114 -108 -114h-22v-60h37c42 0 76.333 15.5 103 46.5s47 75.833 61 134.5l119 509h-74l-80 -398h-2l-98 398h-74z" />
    <glyph glyph-name="thorn" unicode="&#xfe;" 
d="M146 722l-68.002 -0.00195312v-892h72v208c14 -14 29 -25.5 45 -34.5s33 -13.5 51 -13.5c21.333 0 41 4.83301 59 14.5s33.833 25.167 47.5 46.5s24.334 49.333 32.001 84s11.5 76.334 11.5 125.001s-3.83301 90.334 -11.5 125.001s-18.334 62.667 -32.001 84
s-29.5 36.833 -47.5 46.5s-37.667 14.5 -59 14.5s-40.166 -4.5 -56.499 -13.5s-30.166 -20.5 -41.499 -34.5h-2v240zM149.998 419.998c10.667 14.667 23.1689 26.668 37.502 36.001s27.166 14 38.499 14c32 0 56.333 -16 73 -48s25 -86 25 -162
c0 -76.667 -8 -130.834 -24 -162.501s-40 -47.5 -72 -47.5c-14 0 -26.833 4 -38.5 12s-24.834 19.333 -39.501 34v324z" />
    <glyph glyph-name="ydieresis" unicode="&#xff;" horiz-adv-x="333" 
d="M68 588h66v102h-66v-102zM200 588h66v102h-66v-102zM2 520l138 -516c-14.667 -76 -50.667 -114 -108 -114h-22v-60h37c42 0 76.333 15.5 103 46.5s47 75.833 61 134.5l119 509h-74l-80 -398h-2l-98 398h-74z" />
    <glyph glyph-name="OE" unicode="&#x152;" horiz-adv-x="722" 
d="M440 344h178v66h-178v246h234v66h-374c-48 0 -88.333 -5.66699 -121 -17s-59.5 -30.333 -80.5 -57s-36.667 -63.334 -47 -110.001s-15.5 -105.667 -15.5 -177s5.16699 -130.166 15.5 -176.499s26 -83 47 -110s47.833 -46.167 80.5 -57.5s73 -17 121 -17h386v66h-246v278z
M362 168c0 -38.667 -6.83301 -65 -20.5 -79s-37.5 -21 -71.5 -21c-25.333 0 -47.5 4.66699 -66.5 14s-35.167 24.833 -48.5 46.5s-23.5 51.667 -30.5 90s-10.5 85.833 -10.5 142.5s3.5 104.167 10.5 142.5s17.167 68.5 30.5 90.5s29.5 37.5 48.5 46.5s41.167 13.5 66.5 13.5
c34 0 57.833 -6.83301 71.5 -20.5s20.5 -40.167 20.5 -79.5v-386z" />
    <glyph glyph-name="oe" unicode="&#x153;" horiz-adv-x="611" 
d="M95 260c0 43.333 1.66699 78.5 5 105.5s8.5 48.167 15.5 63.5s15.833 26 26.5 32s24 9 40 9c32 0 54.333 -13.333 67 -40c7.33301 -16 12.833 -37.5 16.5 -64.5s5.5 -62.167 5.5 -105.5c0 -42.667 -1.83301 -77.667 -5.5 -105s-9.16699 -48.666 -16.5 -63.999
c-12.667 -27.333 -35 -41 -67 -41c-16 0 -29.333 3 -40 9s-19.5 16.667 -26.5 32s-12.167 36.666 -15.5 63.999s-5 62.333 -5 105zM343 308c2 56 9.5 97 22.5 123s30.5 39 52.5 39c31.333 0 53.5 -12.5 66.5 -37.5s19.833 -66.5 20.5 -124.5h-162zM577 248
l0.00195312 33.998c0 78 -13.167 138.833 -39.5 182.5s-66.166 65.5 -119.499 65.5c-22.667 0 -43.5 -7.33301 -62.5 -22s-34.833 -36.667 -47.5 -66c-21.333 58.667 -63.333 88 -126 88c-54.667 0 -94.834 -21.667 -120.501 -65s-38.5 -111.666 -38.5 -204.999
s12.833 -161.666 38.5 -204.999s65.834 -65 120.501 -65c60.667 0 101.667 27 123 81c13.333 -28.667 30.666 -49.334 51.999 -62.001s44.666 -19 69.999 -19c41.333 0 76.166 14.833 104.499 44.5s44.833 64.834 49.5 105.501l-68 8c-4 -27.333 -12.833 -50.5 -26.5 -69.5
s-33.167 -28.5 -58.5 -28.5s-45.833 13.333 -61.5 40s-23.5 69.667 -23.5 129v29h234z" />
    <glyph glyph-name="Scaron" unicode="&#x160;" 
d="M188 760h68l101 138h-64l-71 -102l-71 102h-64zM396 536c-2.66699 62.667 -19.8301 111.002 -51.4971 145.002s-73.834 51 -126.501 51c-52 0 -94 -15.333 -126 -46s-48 -71.334 -48 -122.001c0 -26 4.33301 -49.667 13 -71s20.334 -40.333 35.001 -57
s30.167 -31.5 46.5 -44.5s37.166 -28.5 62.499 -46.5c45.333 -31.333 78.833 -58.833 100.5 -82.5s32.5 -52.834 32.5 -87.501c0 -38 -9.5 -67.333 -28.5 -88s-45.167 -31 -78.5 -31c-38 0 -67 12.167 -87 36.5s-30.667 58.166 -32 101.499h-72
c1.33301 -61.333 18.166 -110.666 50.499 -147.999s76.5 -56 132.5 -56c59.333 0 105 16.167 137 48.5s48 77.5 48 135.5c0 30 -4.66699 56.833 -14 80.5s-21.5 44.5 -36.5 62.5s-30.833 33.667 -47.5 47s-38.667 29 -66 47c-42.667 29.333 -74.334 55 -95.001 77
s-31 49.667 -31 83c0 28 9 50.833 27 68.5s42 26.5 72 26.5c35.333 0 61.833 -11.667 79.5 -35s28.167 -55 31.5 -95h72z" />
    <glyph glyph-name="scaron" unicode="&#x161;" horiz-adv-x="389" 
d="M161 578h68l101 138h-64l-71 -102l-71 102h-64zM334 406c-8.66699 40 -25.167 70.6631 -49.5 91.9961s-56.166 32 -95.499 32c-38.667 0 -70.834 -12.333 -96.501 -37s-38.5 -54.334 -38.5 -89.001c0 -19.333 3.33301 -36.666 10 -51.999s15.5 -29 26.5 -41
s22.833 -22.5 35.5 -31.5s28.667 -19.5 48 -31.5c34 -21.333 59.167 -40.166 75.5 -56.499s24.5 -37.166 24.5 -62.499c0 -21.333 -7.5 -39.833 -22.5 -55.5s-32.5 -23.5 -52.5 -23.5c-24 0 -43.667 8.5 -59 25.5s-27.333 39.167 -36 66.5l-66 -14
c13.333 -45.333 33 -79.666 59 -102.999s61.667 -35 107 -35c41.333 0 75.333 13.667 102 41s40 61.666 40 102.999c0 21.333 -3.66699 40.5 -11 57.5s-16.833 31.833 -28.5 44.5s-24 23.834 -37 33.501s-29.833 20.834 -50.5 33.501c-32 19.333 -55.5 36.333 -70.5 51
s-22.5 32.667 -22.5 54c0 18 5.5 32.833 16.5 44.5s24.833 17.5 41.5 17.5c26.667 0 46.5 -7 59.5 -21s23.167 -34.333 30.5 -61z" />
    <glyph glyph-name="Ydieresis" unicode="&#x178;" 
d="M123 770h66v102h-66v-102zM255 770h66v102h-66v-102zM16 722l168 -416v-306h78v306l166 416h-84l-120 -316l-124 316h-84z" />
    <glyph glyph-name="florin" unicode="&#x192;" 
d="M34 -166c10.667 -2.66699 22.665 -4.00195 35.998 -4.00195c32 0 57.833 6.33301 77.5 19s36.5 37.5 50.5 74.5s26.333 92.167 37 165.5s21 172.333 31 297h90v60h-86c4 51.333 8.66699 92 14 122s11.833 52.5 19.5 67.5s16.667 24.833 27 29.5s23.5 7 39.5 7
c6.66699 0 17 -1.66699 31 -5c4.66699 -1.33301 9 -2.33301 13 -3v64c-21.333 2.66699 -37.333 4 -48 4c-25.333 0 -47.666 -4.66699 -66.999 -14s-36.166 -24.666 -50.499 -45.999s-25.833 -50.666 -34.5 -87.999s-14 -83.333 -16 -138h-92v-60h88
c-9.33301 -117.333 -18.166 -209.833 -26.499 -277.5s-16.833 -117 -25.5 -148s-17.834 -50.5 -27.501 -58.5s-22.5 -12 -38.5 -12c-14.667 0 -28.667 3.33301 -42 10v-66z" />
    <glyph glyph-name="circumflex" unicode="&#x2c6;" horiz-adv-x="222" 
d="M-24 578h64l71 102l71 -102h64l-101 138h-68z" />
    <glyph glyph-name="tilde" unicode="&#x2dc;" horiz-adv-x="222" 
d="M6 588c1.33301 14.667 5.16895 26.667 11.502 36s15.833 14 28.5 14c8 0 16.667 -1.83301 26 -5.5s21.333 -9.16699 36 -16.5c14 -7.33301 26.167 -12.833 36.5 -16.5s20.166 -5.5 29.499 -5.5c26 0 45 9.33301 57 28s19 42 21 70h-36c-2 -15.333 -5.5 -27.5 -10.5 -36.5
s-14.167 -13.5 -27.5 -13.5c-10.667 0 -29.334 6.66699 -56.001 20l-4 2c-29.333 14.667 -53 22 -71 22c-22 0 -40.167 -10.333 -54.5 -31s-21.833 -43 -22.5 -67h36z" />
    <glyph glyph-name="endash" unicode="&#x2013;" horiz-adv-x="500" 
d="M500 236v48h-500v-48h500z" />
    <glyph glyph-name="emdash" unicode="&#x2014;" horiz-adv-x="1000" 
d="M1000 236v48h-1000v-48h1000z" />
    <glyph glyph-name="quoteleft" unicode="&#x2018;" horiz-adv-x="222" 
d="M156 488v94h-40l46 150h-30l-60 -144v-100h84z" />
    <glyph glyph-name="quoteright" unicode="&#x2019;" horiz-adv-x="222" 
d="M66 722v-94h40l-46 -150h30l60 144v100h-84z" />
    <glyph glyph-name="quotesinglbase" unicode="&#x201a;" horiz-adv-x="222" 
d="M66 94v-94h40l-46 -150h30l60 144v100h-84z" />
    <glyph glyph-name="quotedblleft" unicode="&#x201c;" horiz-adv-x="389" 
d="M323 488v94h-40l46 150h-30l-60 -144v-100h84zM156 488v94h-40l46 150h-30l-60 -144v-100h84z" />
    <glyph glyph-name="quotedblright" unicode="&#x201d;" horiz-adv-x="389" 
d="M66 722v-94h40l-46 -150h30l60 144v100h-84zM233 722v-94h40l-46 -150h30l60 144v100h-84z" />
    <glyph glyph-name="quotedblbase" unicode="&#x201e;" horiz-adv-x="389" 
d="M66 94v-94h40l-46 -150h30l60 144v100h-84zM233 94v-94h40l-46 -150h30l60 144v100h-84z" />
    <glyph glyph-name="dagger" unicode="&#x2020;" horiz-adv-x="500" 
d="M74 474l159.999 24c-0.666992 -22 -2.83398 -45.333 -6.50098 -70s-8.16699 -51.334 -13.5 -80.001c-1.33301 -8.66699 -2.66602 -16.667 -3.99902 -24c5.33301 -26.667 9.5 -61.334 12.5 -104.001s6.5 -106 10.5 -190l5 -114h24c2 30.667 4 68.667 6 114
c3.33301 78 6.5 139.833 9.5 185.5s7.16699 81.834 12.5 108.501c-1.33301 7.33301 -2.66602 15.333 -3.99902 24c-6 32 -10.667 59.333 -14 82s-5.33301 45.334 -6 68.001l160 -24v78l-160 -24c0.666992 26 2.5 52 5.5 78s7.5 56 13.5 90c2 16 3.66699 28 5 36h-80l6 -36
c5.33301 -33.333 9.5 -62.833 12.5 -88.5s4.83301 -52.167 5.5 -79.5l-160 24v-78z" />
    <glyph glyph-name="daggerdbl" unicode="&#x2021;" horiz-adv-x="500" 
d="M426 552l-160.001 -24c0.666992 26 2.5 52 5.5 78s7.5 56 13.5 90c2 16 3.66699 28 5 36h-80l6 -36c5.33301 -33.333 9.5 -62.833 12.5 -88.5s4.83301 -52.167 5.5 -79.5l-160 24v-78l160 24c-0.666992 -22 -2.83398 -45.333 -6.50098 -70
s-8.16699 -51.334 -13.5 -80.001c-1.33301 -8.66699 -2.66602 -16.667 -3.99902 -24c1.33301 -7.33301 2.66602 -15.333 3.99902 -24c6 -32 10.667 -59.333 14 -82s5.33301 -45.334 6 -68.001l-160 24v-78l160 24c-0.666992 -26 -2.5 -52 -5.5 -78s-7.16699 -56 -12.5 -90
l-6 -36h80c-1.33301 8 -3 20 -5 36c-5.33301 33.333 -9.66602 63 -12.999 89s-5.33301 52.333 -6 79l160 -24v78l-160 -24c0.666992 22 2.83398 45.333 6.50098 70s8.16699 51.334 13.5 80.001c1.33301 8.66699 2.66602 16.667 3.99902 24
c-1.33301 7.33301 -2.66602 15.333 -3.99902 24c-6 32 -10.667 59.333 -14 82s-5.33301 45.334 -6 68.001l160 -24v78z" />
    <glyph glyph-name="bullet" unicode="&#x2022;" horiz-adv-x="500" 
d="M69 361c0 -24.667 4.66699 -48 14 -70s22.166 -41.333 38.499 -58s35.5 -29.667 57.5 -39s45.333 -14 70 -14s48 4.66699 70 14s41.333 22.333 58 39s29.667 36 39 58s14 45.333 14 70s-4.66699 48 -14 70s-22.333 41.167 -39 57.5s-36 29.166 -58 38.499
s-45.333 14 -70 14s-48 -4.66699 -70 -14s-41.167 -22.166 -57.5 -38.499s-29.166 -35.5 -38.499 -57.5s-14 -45.333 -14 -70z" />
    <glyph glyph-name="ellipsis" unicode="&#x2026;" horiz-adv-x="1000" 
d="M125 94v-94h84v94h-84zM458 94v-94h84v94h-84zM791 94v-94h84v94h-84z" />
    <glyph glyph-name="perthousand" unicode="&#x2030;" horiz-adv-x="1000" 
d="M20 574c0 -19.333 4 -38 12 -56s18.833 -33.833 32.5 -47.5s29.5 -24.5 47.5 -32.5s36.667 -12 56 -12s38 4 56 12s34 18.833 48 32.5s24.833 29.5 32.5 47.5s11.5 36.667 11.5 56s-3.83301 38 -11.5 56s-18.5 34 -32.5 48s-30 24.833 -48 32.5s-36.667 11.5 -56 11.5
s-38 -3.83301 -56 -11.5s-33.833 -18.5 -47.5 -32.5s-24.5 -30 -32.5 -48s-12 -36.667 -12 -56zM76 574c0 24.667 8.83301 46.167 26.5 64.5s39.5 27.5 65.5 27.5s47.833 -9.16699 65.5 -27.5s26.5 -39.833 26.5 -64.5s-8.83301 -46.167 -26.5 -64.5
s-39.5 -27.5 -65.5 -27.5s-47.833 9.16699 -65.5 27.5s-26.5 39.833 -26.5 64.5zM328 148c0 -19.333 4 -38 12 -56s18.833 -33.833 32.5 -47.5s29.5 -24.5 47.5 -32.5s36.667 -12 56 -12s38 4 56 12s34 18.833 48 32.5s24.833 29.5 32.5 47.5s11.5 36.667 11.5 56
s-3.83301 38 -11.5 56s-18.5 34 -32.5 48s-30 24.833 -48 32.5s-36.667 11.5 -56 11.5s-38 -3.83301 -56 -11.5s-33.833 -18.5 -47.5 -32.5s-24.5 -30 -32.5 -48s-12 -36.667 -12 -56zM384 148c0 24.667 8.83301 46.167 26.5 64.5s39.5 27.5 65.5 27.5
s47.833 -9.16699 65.5 -27.5s26.5 -39.833 26.5 -64.5s-8.83301 -46.167 -26.5 -64.5s-39.5 -27.5 -65.5 -27.5s-47.833 9.16699 -65.5 27.5s-26.5 39.833 -26.5 64.5zM684 148c0 -19.333 4 -38 12 -56s18.833 -33.833 32.5 -47.5s29.5 -24.5 47.5 -32.5s36.667 -12 56 -12
s38 4 56 12s34 18.833 48 32.5s24.833 29.5 32.5 47.5s11.5 36.667 11.5 56s-3.83301 38 -11.5 56s-18.5 34 -32.5 48s-30 24.833 -48 32.5s-36.667 11.5 -56 11.5s-38 -3.83301 -56 -11.5s-33.833 -18.5 -47.5 -32.5s-24.5 -30 -32.5 -48s-12 -36.667 -12 -56zM740 148
c0 24.667 8.83301 46.167 26.5 64.5s39.5 27.5 65.5 27.5s47.833 -9.16699 65.5 -27.5s26.5 -39.833 26.5 -64.5s-8.83301 -46.167 -26.5 -64.5s-39.5 -27.5 -65.5 -27.5s-47.833 9.16699 -65.5 27.5s-26.5 39.833 -26.5 64.5zM500 732l-414 -742h58l414 742h-58z" />
    <glyph glyph-name="guilsinglleft" unicode="&#x2039;" horiz-adv-x="333" 
d="M264 106l-128 154l128 154h-68l-124 -154l124 -154h68z" />
    <glyph glyph-name="guilsinglright" unicode="&#x203a;" horiz-adv-x="333" 
d="M137 106l124 154l-124 154h-68l128 -154l-128 -154h68z" />
    <glyph glyph-name="trademark" unicode="&#x2122;" horiz-adv-x="990" 
d="M372 722h-334v-54h134v-369h66v369h134v54zM506 656h3l139 -357h44l141 357h2v-357h66v423h-106l-124 -321l-126 321h-105v-423h66v357z" />
    </font>
</defs>
</svg>
